<svg height="512pt" viewBox="0 -22 512 512" width="512pt" xmlns="http://www.w3.org/2000/svg"><path d="m185.433594 355.671875c-3.945313-.675781-10.679688-2.832031-10.679688-2.832031-66.480468-21.558594-90.792968-78.8125-90.792968-78.8125 27.46875-18.371094 40.175781 0 40.175781 0s16.339843 42.226562 75.902343 55.367187c0 0 2.777344 18.808594-14.605468 26.277344zm0 0" fill="#8e8178"/><path d="m373.054688 240.417969c-2.703126 8.371093-6.3125 13.007812-6.3125 13.007812-31.761719 56.488281-121.113282 40.691407-168.433594 77.261719-51.859375 40.085938-13.390625 65.933594-13.390625 65.933594l48.933593 25.753906 58.203126-25.753906s-40.175782-14.9375-16.480469-39.660156c15.453125-19.574219 134.953125-42.753907 139.589843-98.382813v-22.664063zm0 0" fill="#a89f9a"/><path d="m415.164062 235.910156v22.664063c-4.636718 55.632812-124.136718 78.8125-139.589843 98.382812-23.695313 24.726563 16.480469 39.664063 16.480469 39.664063h-30.902344s-40.179688-14.9375-16.484375-39.664063c15.453125-19.570312 134.953125-42.753906 139.589843-98.382812v-19.355469zm0 0" fill="#8e8178"/><path d="m332.75 442.980469v-36.058594c0-5.6875-4.613281-10.300781-10.304688-10.300781h-182.339843c-5.691407 0-10.300781 4.613281-10.300781 10.300781v36.058594zm0 0" fill="#96bc5e"/><path d="m332.75 406.921875v15.453125h-30.90625v-15.453125c0-5.6875-4.613281-10.300781-10.300781-10.300781h30.902343c5.6875 0 10.304688 4.613281 10.304688 10.300781zm0 0" fill="#85993d"/><path d="m343.359375 422.375c9.886719 0 17.230469 9.152344 15.085937 18.804688l-3.433593 15.453124c-1.570313 7.070313-7.84375 12.101563-15.085938 12.101563h-217.300781c-7.242188 0-13.515625-5.03125-15.085938-12.101563l-3.433593-15.453124c-2.144531-9.648438 5.199219-18.804688 15.085937-18.804688zm0 0" fill="#9e7f56"/><path d="m358.441406 441.175781-3.429687 15.453125c-1.566407 7.078125-7.839844 12.105469-15.082031 12.105469h-30.90625c7.242187 0 13.515624-5.027344 15.082031-12.105469l3.03125-13.648437.398437-1.804688c2.15625-9.640625-5.191406-18.800781-15.082031-18.800781h30.90625c9.890625 0 17.234375 9.15625 15.082031 18.800781zm0 0" fill="#87613c"/><path d="m403.832031 30.90625-14.9375 4.25-14.941406-4.25c-8.53125 0-15.449219-6.917969-15.449219-15.453125s6.917969-15.453125 15.449219-15.453125h29.875c8.535156 0 15.453125 6.917969 15.453125 15.453125.003906 8.535156-6.917969 15.453125-15.449219 15.453125zm0 0" fill="#ead983"/><path d="m419.285156 15.453125c0 4.265625-1.730468 8.128906-4.535156 10.921875-2.789062 2.800781-6.652344 4.53125-10.917969 4.53125h-29.875c-.175781 0-.351562 0-.515625-.007812 4.058594-.136719 7.726563-1.835938 10.40625-4.523438 2.800782-2.792969 4.53125-6.65625 4.53125-10.921875 0-8.355469-6.644531-15.175781-14.9375-15.4414062.164063-.00781255.339844-.00781255.515625-.00781255h29.875c8.527344-.00390625 15.453125 6.92187475 15.453125 15.44921875zm0 0" fill="#ddc668"/><path d="m432.160156 66.964844-42.496094 10.300781-44.039062-10.300781c-9.957031 0-18.027344-8.074219-18.027344-18.03125 0-9.957032 8.070313-18.027344 18.027344-18.027344h86.535156c9.957032 0 18.027344 8.070312 18.027344 18.027344 0 9.957031-8.070312 18.03125-18.027344 18.03125zm0 0" fill="#ead983"/><path d="m450.1875 48.933594c0 4.976562-2.015625 9.476562-5.285156 12.742187-3.265625 3.265625-7.765625 5.285157-12.742188 5.285157h-30.902344c4.972657 0 9.476563-2.019532 12.742188-5.285157s5.285156-7.765625 5.285156-12.742187c0-9.953125-8.078125-18.027344-18.027344-18.027344h30.902344c9.953125 0 18.027344 8.078125 18.027344 18.027344zm0 0" fill="#ddc668"/><path d="m457.914062 113.320312-69.019531 10.300782-69.023437-10.300782c-12.800782 0-23.179688-10.378906-23.179688-23.179687s10.378906-23.175781 23.179688-23.175781h138.042968c12.804688 0 23.179688 10.375 23.179688 23.175781s-10.375 23.179687-23.179688 23.179687zm0 0" fill="#edd183"/><path d="m481.09375 90.140625c0 6.410156-2.59375 12.199219-6.789062 16.390625-4.191407 4.195312-9.980469 6.789062-16.390626 6.789062h-30.902343c6.40625 0 12.195312-2.59375 16.386719-6.789062 4.195312-4.191406 6.789062-9.980469 6.789062-16.390625 0-12.804687-10.371094-23.175781-23.175781-23.175781h30.902343c12.808594 0 23.179688 10.371094 23.179688 23.175781zm0 0" fill="#ddb44e"/><path d="m135.46875 124.652344-29.53125 12.191406-26.097656-12.191406c-9.957032 0-18.027344-8.070313-18.027344-18.027344s8.070312-18.027344 18.027344-18.027344h55.628906c9.957031 0 18.027344 8.070313 18.027344 18.027344s-8.070313 18.027344-18.027344 18.027344zm0 0" fill="#ead983"/><path d="m153.496094 106.625c0 4.976562-2.019532 9.476562-5.285156 12.742188-3.265626 3.265624-7.765626 5.285156-12.742188 5.285156h-30.90625c4.976562 0 9.480469-2.019532 12.746094-5.285156 3.265625-3.265626 5.285156-7.765626 5.285156-12.742188 0-9.953125-8.078125-18.027344-18.03125-18.027344h30.90625c9.953125 0 18.027344 8.074219 18.027344 18.027344zm0 0" fill="#ddc668"/><path d="m161.222656 171.011719h-7.554687l-47.042969 19.746093-46.359375-19.746093h-6.179687c-12.800782 0-23.179688-10.378907-23.179688-23.179688s10.378906-23.179687 23.179688-23.179687h107.136718c12.800782 0 23.179688 10.378906 23.179688 23.179687s-10.378906 23.179688-23.179688 23.179688zm0 0" fill="#edd183"/><path d="m184.402344 147.832031c0 6.40625-2.597656 12.195313-6.789063 16.390625-4.191406 4.191406-9.980469 6.789063-16.390625 6.789063h-30.90625c6.410156 0 12.199219-2.597657 16.390625-6.789063 4.195313-4.195312 6.789063-9.984375 6.789063-16.390625 0-12.804687-10.375-23.179687-23.179688-23.179687h30.90625c12.804688 0 23.179688 10.375 23.179688 23.179687zm0 0" fill="#ddb44e"/><path d="m186.976562 227.671875h-34.335937l-48.078125 14.59375-47.386719-14.59375h-28.847656c-15.644531 0-28.328125-12.683594-28.328125-28.332031 0-15.644532 12.683594-28.328125 28.328125-28.328125h158.648437c15.648438 0 28.332032 12.683593 28.332032 28.328125 0 15.648437-12.683594 28.332031-28.332032 28.332031zm0 0" fill="#e8ba5d"/><path d="m215.308594 199.339844c0 7.832031-3.171875 14.90625-8.292969 20.039062-5.128906 5.117188-12.207031 8.292969-20.039063 8.292969h-30.902343c7.828125 0 14.90625-3.175781 20.035156-8.292969 5.121094-5.132812 8.292969-12.207031 8.292969-20.039062 0-15.648438-12.679688-28.328125-28.328125-28.328125h30.902343c15.648438 0 28.332032 12.679687 28.332032 28.328125zm0 0" fill="#d69941"/><path d="m483.671875 169.980469h-39.664063l-56.660156 10.300781-63.355468-10.300781h-29.875c-15.648438 0-28.332032-12.683594-28.332032-28.328125 0-15.648438 12.683594-28.332032 28.332032-28.332032h189.554687c15.644531 0 28.328125 12.683594 28.328125 28.332032 0 15.644531-12.683594 28.328125-28.328125 28.328125zm0 0" fill="#e8ba5d"/><path d="m512 141.652344c0 7.828125-3.171875 14.90625-8.292969 20.035156-5.128906 5.121094-12.207031 8.292969-20.035156 8.292969h-30.90625c7.828125 0 14.90625-3.171875 20.035156-8.292969 5.121094-5.128906 8.292969-12.207031 8.292969-20.035156 0-15.648438-12.679688-28.332032-28.328125-28.332032h30.90625c15.644531 0 28.328125 12.683594 28.328125 28.332032zm0 0" fill="#d69941"/><path d="m457.914062 216.339844h-30.386718l-37.863282 10.300781-38.371093-10.300781h-31.421875c-12.800782 0-23.179688-10.378906-23.179688-23.179688 0-12.800781 10.378906-23.179687 23.179688-23.179687h138.042968c12.804688 0 23.179688 10.378906 23.179688 23.179687 0 12.800782-10.375 23.179688-23.179688 23.179688zm0 0" fill="#e2a05d"/><path d="m481.09375 193.160156c0 6.40625-2.59375 12.195313-6.789062 16.390625-4.191407 4.191407-9.980469 6.789063-16.390626 6.789063h-30.902343c6.40625 0 12.195312-2.597656 16.386719-6.789063 4.195312-4.195312 6.789062-9.984375 6.789062-16.390625 0-12.804687-10.371094-23.179687-23.175781-23.179687h30.902343c12.808594 0 23.179688 10.375 23.179688 23.179687zm0 0" fill="#cc824a"/><path d="m432.160156 252.394531h-86.535156c-9.957031 0-18.027344-8.070312-18.027344-18.027343 0-9.957032 8.070313-18.027344 18.027344-18.027344h86.535156c9.957032 0 18.027344 8.070312 18.027344 18.027344 0 9.957031-8.070312 18.027343-18.027344 18.027343zm0 0" fill="#e2a05d"/><path d="m450.1875 234.367188c0 4.976562-2.015625 9.476562-5.285156 12.742187-3.265625 3.265625-7.765625 5.285156-12.742188 5.285156h-30.902344c4.972657 0 9.476563-2.019531 12.742188-5.285156s5.285156-7.765625 5.285156-12.742187c0-9.953126-8.078125-18.027344-18.027344-18.027344h30.902344c9.953125 0 18.027344 8.074218 18.027344 18.027344zm0 0" fill="#cc824a"/><path d="m161.222656 274.027344h-107.136718c-12.804688 0-23.179688-10.375-23.179688-23.175782 0-12.800781 10.375-23.179687 23.179688-23.179687h107.136718c12.800782 0 23.179688 10.378906 23.179688 23.179687 0 12.800782-10.378906 23.175782-23.179688 23.175782zm0 0" fill="#e2a05d"/><path d="m184.402344 250.851562c0 6.40625-2.597656 12.195313-6.789063 16.386719-4.191406 4.195313-9.980469 6.789063-16.390625 6.789063h-30.90625c6.410156 0 12.199219-2.59375 16.390625-6.789063 4.195313-4.191406 6.789063-9.980469 6.789063-16.386719 0-12.804687-10.375-23.179687-23.179688-23.179687h30.90625c12.804688 0 23.179688 10.375 23.179688 23.179687zm0 0" fill="#cc824a"/><path d="m268.144531 328.410156c-1.492187 2.207032-3.921875 3.390625-6.394531 3.390625-1.496094 0-3-.433593-4.328125-1.339843l-16.410156-11.136719c-2.515625-1.707031-3.699219-4.644531-3.308594-7.46875 4.617187-1.410157 9.324219-2.675781 14.105469-3.882813l14.289062 9.703125c3.53125 2.402344 4.449219 7.214844 2.046875 10.734375zm0 0" fill="#776d68"/><path d="m268.371094 375.121094c-.125.011718-.234375.011718-.359375.011718-1.453125 0-2.914063-.402343-4.214844-1.257812l-14.421875-9.417969c-3.574219-2.335937-4.585938-7.117187-2.246094-10.691406 2.328125-3.574219 7.117188-4.585937 10.691406-2.246094l14.425782 9.414063c-3.78125 5.246094-4.6875 9.984375-3.875 14.1875zm0 0" fill="#56514f"/><g fill="#776d68"><path d="m222.507812 346.265625c-1.480468 2.253906-3.945312 3.480469-6.457031 3.480469-1.464843 0-2.925781-.410156-4.234375-1.265625l-17.152344-11.269531c-.792968-.527344-1.464843-1.175782-2-1.90625 1.75-1.515626 3.625-3.0625 5.644532-4.617188 2.265625-1.75 4.636718-3.386719 7.097656-4.914062l14.886719 9.789062c3.574219 2.347656 4.566406 7.136719 2.214843 10.703125zm0 0"/><path d="m224.464844 376.40625c-1.453125 2.402344-4.003906 3.730469-6.613282 3.730469-1.371093 0-2.738281-.359375-3.996093-1.113281l-8.316407-5.039063c-3.65625-2.214844-4.820312-6.960937-2.613281-10.609375 2.214844-3.648438 6.960938-4.820312 10.609375-2.605469l8.324219 5.027344c3.648437 2.214844 4.820313 6.964844 2.605469 10.609375zm0 0"/><path d="m330.164062 329.84375c-5.109374 2.175781-10.117187 4.253906-14.90625 6.242188l-12.929687-10.082032c-3.371094-2.617187-3.976563-7.480468-1.351563-10.839844 2.628907-3.367187 7.480469-3.976562 10.839844-1.351562l15.71875 12.242188c1.289063 1.007812 2.175782 2.335937 2.628906 3.789062zm0 0"/></g><path d="m330.164062 329.84375c-5.109374 2.175781-10.117187 4.253906-14.90625 6.242188l-10.839843-8.457032c5.273437-2.285156 10.609375-4.675781 15.90625-7.191406l7.210937 5.617188c1.289063 1.007812 2.175782 2.335937 2.628906 3.789062zm0 0" fill="#56514f"/><path d="m347.882812 301.410156c-1.496093 1.433594-3.421874 2.152344-5.347656 2.152344-2.027344 0-4.058594-.800781-5.574218-2.378906l-10.414063-10.867188c-.617187-.640625-1.101563-1.359375-1.441406-2.121094 4.902343-2.074218 9.601562-4.398437 14.039062-7.058593l8.964844 9.355469c2.957031 3.078124 2.851563 7.960937-.226563 10.917968zm0 0" fill="#776d68"/><path d="m398.503906 290.152344c-3.574218 3.511718-7.601562 6.851562-11.960937 10.03125l-11.929688-10.136719c-3.242187-2.761719-3.644531-7.644531-.875-10.886719 2.761719-3.257812 7.632813-3.648437 10.890625-.886718l13.144532 11.175781c.257812.21875.503906.453125.730468.703125zm0 0" fill="#776d68"/><path d="m398.503906 290.152344c-.441406.441406-.894531.875-1.359375 1.308594-.441406.421874-.894531.832031-1.347656 1.253906-1.917969 1.730468-3.9375 3.410156-6.050781 5.050781-.523438.410156-1.050782.8125-1.585938 1.214844-.523437.402343-1.050781.792969-1.585937 1.171875l-.03125.03125-11.929688-10.136719c-1.429687-1.214844-2.316406-2.851563-2.605469-4.582031 2.460938-2.863282 4.625-5.84375 6.417969-8.933594 2.144531-.339844 4.417969.226562 6.203125 1.742188l13.144532 11.175781c.257812.21875.503906.453125.730468.703125zm0 0" fill="#56514f"/></svg>