<svg height="512pt" viewBox="-6 0 512 512.00141" width="512pt" xmlns="http://www.w3.org/2000/svg"><path d="m360.207031 357.476562c1.996094 0 3.8125-1.152343 4.660157-2.960937l13.375-28.460937 18.203124-7.894532 21.632813 7.894532-26.007813 46.507812c-5.460937 9.769531-15.78125 15.820312-26.972656 15.820312h-111.933594l-12.621093-31.164062zm0 0" fill="#875d41"/><path d="m104.914062 373.957031c-1.996093 0-3.8125-1.152343-4.664062-2.957031l-13.375-28.460938-17.339844-10.300781-22.492187 10.300781 26.007812 46.503907c5.464844 9.769531 15.78125 15.820312 26.972657 15.820312h146.960937l-37.601563-31.160156zm0 0" fill="#875d41"/><path d="m219.941406 439.890625-54.90625-129.417969c-6.296875-14.84375-5.277344-31.777344 2.75-45.761718l67.609375-117.773438h50.476563l-70.597656 129.628906c-3.492188 6.410156-3.332032 14.1875.421874 20.445313l85.628907 142.878906v25.753906l-81.210938.003907zm0 0" fill="#9e6f4f"/><path d="m301.324219 439.890625v25.753906h-30.90625v-25.753906l-85.628907-142.875c-3.75-6.261719-3.914062-14.042969-.421874-20.449219l70.597656-129.625h30.90625l-70.597656 129.625c-3.492188 6.40625-3.328126 14.183594.421874 20.449219zm0 0" fill="#875d41"/><path d="m361.589844 486.246094v-36.054688c0-5.6875-4.613282-10.300781-10.304688-10.300781h-182.339844c-5.6875 0-10.300781 4.609375-10.300781 10.300781v36.054688zm0 0" fill="#96bc5e"/><path d="m361.589844 450.191406v15.453125h-30.90625v-15.453125c0-5.6875-4.613282-10.300781-10.300782-10.300781h30.902344c5.6875 0 10.304688 4.613281 10.304688 10.300781zm0 0" fill="#85993d"/><path d="m372.199219 465.644531c9.886719 0 17.230469 9.152344 15.085937 18.804688l-3.433594 15.453125c-1.570312 7.070312-7.84375 12.097656-15.085937 12.097656h-217.296875c-7.242188 0-13.515625-5.027344-15.085938-12.097656l-3.433593-15.453125c-2.144531-9.652344 5.199219-18.804688 15.085937-18.804688zm0 0" fill="#9e7f56"/><path d="m387.28125 484.445312-3.429688 15.453126c-1.566406 7.074218-7.839843 12.101562-15.082031 12.101562h-30.90625c7.242188 0 13.515625-5.027344 15.082031-12.101562l3.03125-13.652344.402344-1.800782c2.152344-9.644531-5.191406-18.800781-15.082031-18.800781h30.902344c9.890625 0 17.234375 9.15625 15.082031 18.800781zm0 0" fill="#87613c"/><path d="m416.703125 78.816406c-2.085937 0-4.132813.160156-6.128906.472656.964843-3.425781 1.492187-7.039062 1.492187-10.777343 0-21.902344-17.753906-39.660157-39.660156-39.660157-8.6875 0-16.71875 2.804688-23.253906 7.539063-6.28125-21.039063-25.773438-36.3828125-48.859375-36.3828125-20.144531 0-37.558594 11.6874995-45.839844 28.6484375-8.285156-16.960938-25.695313-28.6484375-45.84375-28.6484375-23.082031 0-42.574219 15.3437495-48.859375 36.3828125-6.535156-4.734375-14.5625-7.539063-23.253906-7.539063-21.902344 0-39.660156 17.757813-39.660156 39.660157 0 3.738281.527343 7.347656 1.496093 10.777343-2-.3125-4.046875-.472656-6.128906-.472656-21.90625 0-39.664063 17.757813-39.664063 39.660156 0 21.902344 17.757813 39.660157 39.664063 39.660157 1.914063 0 3.796875-.144531 5.640625-.40625 4.027344 17.636719 19.800781 30.796875 38.65625 30.796875 8.6875 0 16.71875-2.800782 23.253906-7.539063 6.28125 21.042969 25.773438 36.382813 48.859375 36.382813 20.144531 0 37.558594-11.683594 45.839844-28.644532 8.285156 16.960938 25.699219 28.644532 45.84375 28.644532 23.082031 0 42.574219-15.339844 48.859375-36.382813 6.535156 4.738281 14.5625 7.539063 23.253906 7.539063 18.855469 0 34.625-13.160156 38.652344-30.796875 1.84375.265625 3.726562.40625 5.644531.40625 21.902344 0 39.660157-17.757813 39.660157-39.660157 0-21.902343-17.757813-39.660156-39.664063-39.660156zm0 0" fill="#ffd4d4"/><path d="m456.363281 118.476562c0 21.902344-17.757812 39.660157-39.660156 39.660157-1.914063 0-3.800781-.140625-5.644531-.398438-4.027344 17.625-19.800782 30.789063-38.652344 30.789063-5.492188 0-10.714844-1.121094-15.460938-3.140625 11.585938-4.882813 20.355469-15.144531 23.207032-27.648438 1.84375.257813 3.730468.398438 5.644531.398438 21.902344 0 39.664063-17.757813 39.664063-39.660157 0-21.898437-17.761719-39.660156-39.664063-39.660156-2.078125 0-4.128906.164063-6.128906.472656.96875-3.429687 1.496093-7.035156 1.496093-10.773437 0-16.421875-9.984374-30.515625-24.199218-36.53125 4.738281-2.019531 9.960937-3.132813 15.441406-3.132813 21.902344 0 39.660156 17.761719 39.660156 39.660157 0 3.742187-.523437 7.347656-1.492187 10.777343 1.996093-.308593 4.046875-.472656 6.128906-.472656 21.902344 0 39.660156 17.757813 39.660156 39.660156zm0 0" fill="#fcacac"/><path d="m319.910156 72.851562c.460938-2 4.40625-20.183593-1.660156-36.460937-4.8125-16.128906-17.390625-28.90625-33.386719-33.996094 1.164063-.367187 2.347657-.699219 3.550781-.988281 4.265626-.984375 8.644532-1.507812 13.023438-1.390625 22.582031.496094 41.535156 15.679687 47.714844 36.375-22.609375 12.097656-28.699219 34.285156-29.242188 36.460937zm0 0" fill="#fcacac"/><path d="m475.421875 277.636719c-6.621094 0-12.617187 2.660156-16.988281 6.96875 1.976562-4.5 3.082031-9.464844 3.082031-14.695313 0-20.195312-16.371094-36.570312-36.570313-36.570312-13.007812 0-24.421874 6.796875-30.90625 17.027344-6.480468-10.230469-17.894531-17.027344-30.90625-17.027344-20.195312 0-36.570312 16.375-36.570312 36.570312 0 5.230469 1.105469 10.195313 3.082031 14.695313-4.371093-4.308594-10.367187-6.96875-16.988281-6.96875-13.371094 0-24.207031 10.839843-24.207031 24.210937s10.835937 24.207032 24.207031 24.207032h162.765625c13.371094 0 24.210937-10.835938 24.210937-24.207032s-10.839843-24.210937-24.210937-24.210937zm0 0" fill="#ffd4d4"/><path d="m461.515625 269.910156c0 4.472656-.804687 8.757813-2.285156 12.714844-4.082031-3.132812-9.179688-4.988281-14.710938-4.988281-6.625 0-12.621093 2.660156-16.988281 6.964843 1.976562-4.492187 3.078125-9.46875 3.078125-14.691406 0-10.09375-4.089844-19.242187-10.710937-25.855468-3-3-6.511719-5.480469-10.394532-7.292969 4.6875-2.195313 9.917969-3.421875 15.441406-3.421875 10.09375 0 19.242188 4.089844 25.855469 10.714844 6.625 6.613281 10.714844 15.761718 10.714844 25.855468zm0 0" fill="#fcacac"/><path d="m499.632812 301.847656c0 13.371094-10.839843 24.207032-24.210937 24.207032h-30.902344c13.371094 0 24.207031-10.835938 24.207031-24.207032 0-7.488281-3.398437-14.183594-8.746093-18.636718 4.191406-3.480469 9.570312-5.574219 15.441406-5.574219 13.371094 0 24.210937 10.839843 24.210937 24.210937zm0 0" fill="#fcacac"/><path d="m105.589844 292.058594c-1.847656 0-3.648438.207031-5.382813.582031.488281-2.347656.75-4.78125.75-7.277344 0-19.628906-15.914062-35.539062-35.542969-35.539062-19.628906 0-35.539062 15.910156-35.539062 35.539062 0 2.496094.257812 4.929688.75 7.277344-1.738281-.375-3.539062-.582031-5.386719-.582031-13.9375 0-25.238281 11.300781-25.238281 25.242187 0 13.9375 11.300781 25.238281 25.238281 25.238281h80.355469c13.9375 0 25.238281-11.300781 25.238281-25.238281 0-13.941406-11.300781-25.242187-25.242187-25.242187zm0 0" fill="#ffd4d4"/><path d="m130.832031 317.300781c0 13.9375-11.300781 25.238281-25.238281 25.238281h-30.90625c13.9375 0 25.238281-11.300781 25.238281-25.238281s-11.300781-25.242187-25.238281-25.242187c-1.84375 0-3.648438.207031-5.390625.578125.496094-2.347657.753906-4.78125.753906-7.273438 0-9.804687-3.976562-18.695312-10.414062-25.125-2.804688-2.800781-6.070313-5.140625-9.675781-6.890625 4.667968-2.257812 9.921874-3.523437 15.453124-3.523437 9.808594 0 18.699219 3.976562 25.128907 10.414062 6.4375 6.429688 10.414062 15.320313 10.414062 25.125 0 2.492188-.257812 4.925781-.753906 7.273438 1.742187-.371094 3.546875-.578125 5.390625-.578125 13.9375 0 25.238281 11.304687 25.238281 25.242187zm0 0" fill="#fcacac"/></svg>