<svg height="512pt" viewBox="-8 0 512 512.001" width="512pt" xmlns="http://www.w3.org/2000/svg"><path d="m311.140625 359.34375c7.691406 8.050781 18.53125 13.066406 30.546875 13.066406 19.179688 0 35.363281-12.789062 40.515625-30.296875 4.945313 2.882813 10.695313 4.542969 16.832031 4.542969 18.492188 0 33.480469-14.992188 33.480469-33.480469 0-6.960937-2.125-13.429687-5.761719-18.785156 0 0-16.914062-26.542969-35.972656-45.601563-19.058594-19.058593 43.632812-119.695312 43.632812-119.695312 2.710938-4.445312 4.269532-9.671875 4.269532-15.257812 0-16.21875-13.144532-29.363282-29.359375-29.363282-.488281 0-.976563.015625-1.460938.039063 1.054688-3.082031 1.632813-6.386719 1.632813-9.824219 0-16.785156-13.605469-30.390625-30.390625-30.390625-8.480469 0-16.144531 3.476563-21.65625 9.078125-1.902344-18.410156-17.460938-32.773438-36.375-32.773438-12.601563 0-23.710938 6.375-30.289063 16.070313-3.394531-20.796875-21.4375-36.671875-43.199218-36.671875-21.757813 0-39.800782 15.875-43.199219 36.671875-6.574219-9.695313-17.683594-16.070313-30.285157-16.070313-18.914062 0-34.476562 14.363282-36.375 32.773438-5.511718-5.601562-13.179687-9.078125-21.65625-9.078125-16.785156 0-30.390624 13.605469-30.390624 30.390625 0 3.4375.578124 6.742188 1.628906 9.824219-.480469-.023438-.96875-.039063-1.460938-.039063-16.214844 0-29.359375 13.144532-29.359375 29.363282 0 4.71875 1.113281 9.179687 3.09375 13.132812 0 0 8.753907 14.679688 24.722657 33.222656 15.96875 18.542969 6.695312 111.777344 6.695312 111.777344-4.121094 4.121094-23.195312 23.378906-23.195312 23.378906-3.253907 5.160156-5.132813 11.273438-5.132813 17.828125 0 18.488281 14.988281 33.480469 33.480469 33.480469 6.136718 0 11.886718-1.660156 16.832031-4.542969 5.152344 17.511719 21.335937 30.296875 40.515625 30.296875 11.980469 0 22.796875-4.988281 30.484375-13.003906" fill="#edd183"/><g fill="#ddb44e"><path d="m432.515625 313.175781c0 18.492188-14.988281 33.480469-33.480469 33.480469-5.574218 0-10.828125-1.371094-15.441406-3.78125 10.710938-5.585938 18.015625-16.792969 18.015625-29.699219 0-2.84375-.347656-5.59375-1.019531-8.222656 9.871094-.875 18.6875-5.347656 25.167968-12.105469.648438 1 1 1.546875 1 1.546875 3.636719 5.359375 5.757813 11.816407 5.757813 18.78125zm0 0"/><path d="m381.664062 343.800781c-5.664062 16.636719-21.417968 28.609375-39.980468 28.609375-5.449219 0-10.671875-1.039062-15.453125-2.914062 12.042969-4.738282 21.378906-14.847656 25.066406-27.382813 4.945313 2.882813 10.691406 4.542969 16.832031 4.542969 4.820313 0 9.394532-1.019531 13.535156-2.855469zm0 0"/><path d="m438.6875 113.835938c0 5.59375-1.566406 10.816406-4.277344 15.257812 0 0-.070312.109375-.203125.339844-4.84375-1.867188-10.109375-2.898438-15.609375-2.898438-5.355468 0-10.484375.980469-15.226562 2.773438.09375-.144532.136718-.214844.136718-.214844 2.707032-4.441406 4.273438-9.664062 4.273438-15.257812 0-16.214844-13.144531-29.359376-29.359375-29.359376-.496094 0-.980469.007813-1.464844.039063 1.050781-3.089844 1.640625-6.386719 1.640625-9.828125 0-11.136719-5.996094-20.871094-14.929687-26.167969 4.523437-2.6875 9.796875-4.222656 15.445312-4.222656 16.78125 0 30.386719 13.609375 30.386719 30.390625 0 3.441406-.585938 6.738281-1.636719 9.828125.484375-.03125.96875-.042969 1.464844-.042969 16.210937.003906 29.359375 13.148438 29.359375 29.363282zm0 0"/><path d="m355.632812 45.214844c-2.371093-.597656-4.863281-.917969-7.429687-.917969-8.488281 0-16.152344 3.484375-21.664063 9.078125-1.339843-13.03125-9.527343-24.035156-20.914062-29.351562 4.6875-2.195313 9.933594-3.417969 15.445312-3.417969 16.007813 0 29.617188 10.289062 34.5625 24.609375zm0 0"/></g><path d="m165.21875 302.601562c45.570312 81.601563 5.042969 137.289063 5.042969 137.289063l77.324219 25.753906 77.328124-25.753906s-40.90625-56.199219 5.679688-138.421875c0 0 10.738281-15.851562 15.632812-21 4.894532-5.152344-37.34375-13.910156-37.34375-13.910156s-5.234374 7.460937-8.585937 12.105468l-28.085937 38.960938c-12.351563 17.136719-37.875 17.101562-50.183594-.066406l-27.148438-37.863282s-12.191406-17.855468-18.886718-26.097656c-21.894532 11.933594-16.570313 38.03125-16.570313 38.03125zm0 0" fill="#cc8f66"/><path d="m269.738281 384.773438c0 12.230468-9.917969 22.148437-22.152343 22.148437-12.230469 0-22.148438-9.917969-22.148438-22.148437 0-12.234376 9.917969-22.148438 22.148438-22.148438 12.234374 0 22.152343 9.914062 22.152343 22.148438zm0 0" fill="#b77649"/><path d="m346.226562 280.46875c-4.890624 5.148438-15.636718 21.003906-15.636718 21.003906-46.585938 82.21875-5.675782 138.414063-5.675782 138.414063h-30.90625s-40.910156-56.195313 5.675782-138.414063c0 0 10.746094-15.855468 15.636718-21.003906 1.96875-2.074219-3.707031-4.742188-11.1875-7.183594 2.503907-3.519531 4.75-6.726562 4.75-6.726562s42.238282 8.757812 37.34375 13.910156zm0 0" fill="#b77649"/><path d="m456.078125 191.414062c3.675781-6.359374 5.789063-13.734374 5.789063-21.605468 0-23.898438-19.375-43.269532-43.269532-43.269532-17.765625 0-33.023437 10.710938-39.683594 26.023438-6.714843-9.503906-17.78125-15.71875-30.304687-15.71875-20.484375 0-37.089844 16.601562-37.089844 37.085938 0 6.238281 1.550781 12.113281 4.269531 17.273437-3.222656-.957031-6.632812-1.476563-10.167968-1.476563-19.722656 0-35.714844 15.988282-35.714844 35.710938 0 18.859375 14.617188 34.289062 33.136719 35.613281-.449219 2.136719-.683594 4.351563-.683594 6.625 0 17.828125 14.449219 32.277344 32.277344 32.277344 11.644531 0 21.847656-6.167969 27.523437-15.410156 6.792969 12.257812 19.855469 20.5625 34.867188 20.5625 17.984375 0 33.179687-11.921875 38.128906-28.292969 4.886719 1.855469 10.183594 2.882812 15.71875 2.882812 24.464844 0 44.300781-19.832031 44.300781-44.296874 0-22.707032-17.085937-41.410157-39.097656-43.984376zm0 0" fill="#e88080"/><path d="m495.171875 235.394531c0 24.46875-19.832031 44.300781-44.300781 44.300781-5.417969 0-10.621094-.992187-15.429688-2.78125 16.832032-6.273437 28.824219-22.488281 28.824219-41.515624 0-22.707032-17.082031-41.40625-39.09375-43.980469 3.675781-6.367188 5.789063-13.742188 5.789063-21.613281 0-18.4375-11.539063-34.191407-27.804688-40.421876 4.800781-1.835937 10.003906-2.84375 15.441406-2.84375 23.898438 0 43.269532 19.378907 43.269532 43.269532 0 7.871094-2.113282 15.246094-5.792969 21.613281 22.015625 2.570313 39.097656 21.269531 39.097656 43.972656zm0 0" fill="#d15a5a"/><path d="m0 235.394531c0 24.464844 19.832031 44.300781 44.296875 44.300781 5.539063 0 10.835937-1.027343 15.722656-2.882812 4.949219 16.371094 20.144531 28.292969 38.128907 28.292969 15.007812 0 28.074218-8.304688 34.863281-20.566407 5.679687 9.246094 15.878906 15.414063 27.527343 15.414063 17.824219 0 32.277344-14.449219 32.277344-32.277344 0-2.273437-.238281-4.488281-.683594-6.628906 18.519532-1.320313 33.132813-16.753906 33.132813-35.609375 0-19.722656-15.988281-35.710938-35.710937-35.710938-3.535157 0-6.945313.519532-10.167969 1.476563 2.722656-5.160156 4.269531-11.035156 4.269531-17.273437 0-20.484376-16.605469-37.089844-37.089844-37.089844-12.523437 0-23.589844 6.214844-30.304687 15.722656-6.664063-15.3125-21.917969-26.023438-39.683594-26.023438-23.898437 0-43.269531 19.371094-43.269531 43.269532 0 7.871094 2.113281 15.246094 5.785156 21.601562-22.007812 2.578125-39.09375 21.28125-39.09375 43.984375zm0 0" fill="#e2a05d"/><path d="m192.132812 261.046875c.441407 2.144531.679688 4.359375.679688 6.625 0 17.832031-14.453125 32.285156-32.277344 32.285156-5.59375 0-10.855468-1.429687-15.441406-3.933593 10.023438-5.492188 16.8125-16.121094 16.8125-28.351563 0-2.265625-.234375-4.480469-.679688-6.625 18.523438-1.316406 33.132813-16.75 33.132813-35.613281 0-19.714844-15.988281-35.703125-35.707031-35.703125-3.535156 0-6.941406.511719-10.167969 1.472656 2.71875-5.164063 4.265625-11.035156 4.265625-17.277344 0-14.957031-8.859375-27.855469-21.625-33.71875 4.710938-2.160156 9.933594-3.367187 15.445312-3.367187 20.476563 0 37.085938 16.605468 37.085938 37.085937 0 6.242188-1.546875 12.113281-4.265625 17.277344 3.222656-.960937 6.632813-1.472656 10.167969-1.472656 19.71875 0 35.707031 15.988281 35.707031 35.703125-.003906 18.863281-14.609375 34.296875-33.132813 35.613281zm0 0" fill="#cc824a"/><path d="m349.058594 486.246094v-36.054688c0-5.691406-4.613282-10.304687-10.300782-10.304687h-182.339843c-5.6875 0-10.300781 4.613281-10.300781 10.304687v36.054688zm0 0" fill="#96bc5e"/><path d="m349.058594 450.1875v36.058594h-30.902344v-36.058594c0-5.683594-4.617188-10.300781-10.304688-10.300781h30.90625c5.6875 0 10.300782 4.617187 10.300782 10.300781zm0 0" fill="#85993d"/><path d="m359.667969 465.644531c9.886719 0 17.230469 9.152344 15.085937 18.804688l-3.433594 15.449219c-1.570312 7.070312-7.84375 12.101562-15.085937 12.101562h-217.292969c-7.246094 0-13.515625-5.03125-15.085937-12.101562l-3.433594-15.449219c-2.144531-9.652344 5.199219-18.804688 15.082031-18.804688zm0 0" fill="#9e7f56"/><path d="m374.753906 484.441406-3.429687 15.453125c-1.578125 7.078125-7.839844 12.105469-15.082031 12.105469h-30.90625c7.242187 0 13.503906-5.027344 15.082031-12.105469l3.027343-13.648437.402344-1.804688c2.144532-9.640625-5.199218-18.800781-15.082031-18.800781h30.90625c9.878906 0 17.222656 9.160156 15.082031 18.800781zm0 0" fill="#87613c"/></svg>