<svg height="512pt" viewBox="-39 0 512 512.001" width="512pt" xmlns="http://www.w3.org/2000/svg"><path d="m203.691406 231.53125c-13.132812 24.984375-20.285156 35.835938-20.285156 35.835938-7.941406 13.929687-24.558594 39.222656-49.679688 58.683593-36.570312 28.332031-64.386718 40.179688-64.386718 84.992188v28.84375l53.742187 30.90625 63.527344-30.90625s-36.402344-5.324219-32.28125-39.660157c4.121094-34.339843 50.136719-45.328124 79.667969-46.703124 0 0 11.730468-1.257813 15.625-3.679688 8.648437-5.382812 11.238281-35.8125-8.414063-32.375-20.386719 2.675781-38.027343 6.933594-48.074219 9.878906-2.03125.597656-3.53125-1.898437-2.046874-3.40625 14.378906-14.652344 25.710937-36.402344 32.074218-50.34375 0 0 13.757813-27.128906 19.164063-43.351562zm0 0" fill="#9e6f4f"/><path d="m249.617188 349.839844c-3.890626 2.429687-15.617188 3.6875-15.617188 3.6875-29.535156 1.371094-75.550781 12.363281-79.671875 46.699218-4.121094 34.335938 32.285156 39.660157 32.285156 39.660157h-30.90625s-36.40625-5.324219-32.285156-39.660157c4.121094-34.335937 50.140625-45.328124 79.675781-46.699218 0 0 11.722656-1.257813 15.617188-3.6875 6.394531-3.976563 9.476562-21.636719 2.707031-29.1875 6.152344-1.164063 12.816406-2.273438 19.789063-3.179688 19.648437-3.441406 17.0625 26.988282 8.40625 32.367188zm0 0" fill="#875d41"/><path d="m26.070312 486.246094v-36.058594c0-5.6875 4.613282-10.300781 10.304688-10.300781h182.339844c5.691406 0 10.304687 4.613281 10.304687 10.300781v36.058594zm0 0" fill="#96bc5e"/><path d="m229.015625 450.1875v36.058594h-30.90625v-36.058594c0-5.683594-4.605469-10.300781-10.300781-10.300781h30.902344c5.699218 0 10.304687 4.617187 10.304687 10.300781zm0 0" fill="#85993d"/><path d="m239.628906 465.640625c9.886719 0 17.230469 9.15625 15.085938 18.804687l-3.433594 15.453126c-1.574219 7.070312-7.84375 12.101562-15.085938 12.101562h-217.300781c-7.242187 0-13.515625-5.027344-15.085937-12.101562l-3.433594-15.453126c-2.144531-9.648437 5.199219-18.804687 15.085938-18.804687zm0 0" fill="#9e7f56"/><path d="m254.71875 484.441406-3.441406 15.453125c-1.566406 7.078125-7.839844 12.105469-15.082032 12.105469h-30.90625c7.242188 0 13.515626-5.027344 15.082032-12.105469l3.039062-13.648437.402344-1.804688c2.144531-9.640625-5.203125-18.800781-15.089844-18.800781h30.902344c9.890625 0 17.234375 9.160156 15.09375 18.800781zm0 0" fill="#87613c"/><path d="m434.539062 131.347656c0-22.1875-17.988281-40.175781-40.175781-40.175781-2.042969 0-4.050781.152344-6.015625.449219 1.003906-3.527344 1.550782-7.246094 1.550782-11.09375 0-22.378906-18.140626-40.523438-40.519532-40.523438-10.476562 0-20.019531 3.976563-27.214844 10.5-2.910156-20.683594-20.667968-36.597656-42.152343-36.597656-5.457031 0-10.671875 1.039062-15.46875 2.910156-7.8125-10.21875-20.125-16.816406-33.980469-16.816406-18.128906 0-33.613281 11.289062-39.828125 27.21875-7.761719-8.191406-18.734375-13.3125-30.910156-13.3125-21.484375 0-39.242188 15.914062-42.15625 36.597656-7.191407-6.523437-16.734375-10.496094-27.210938-10.496094-22.378906 0-40.519531 18.140626-40.519531 40.519532 0 3.847656.546875 7.566406 1.550781 11.09375-1.960937-.292969-3.96875-.449219-6.015625-.449219-22.1875 0-40.175781 17.988281-40.175781 40.175781 0 17.324219 10.960937 32.082032 26.328125 37.726563-5.625 7.21875-8.984375 16.285156-8.984375 26.144531 0 23.519531 19.0625 42.582031 42.578125 42.582031 10.753906 0 20.570312-3.996093 28.0625-10.570312 2.355469 22.535156 21.410156 40.101562 44.566406 40.101562 15.886719 0 29.835938-8.273437 37.792969-20.742187 8.097656 16.261718 24.878906 27.4375 44.277344 27.4375h.003906c19.398437 0 36.179687-11.175782 44.277344-27.4375 7.960937 12.46875 21.90625 20.742187 37.792969 20.742187 23.15625 0 42.210937-17.566406 44.566406-40.101562 7.492187 6.574219 17.308594 10.570312 28.0625 10.570312 23.515625 0 42.578125-19.0625 42.578125-42.582031 0-9.859375-3.359375-18.929688-8.984375-26.144531 15.363281-5.644531 26.324218-20.402344 26.324218-37.726563zm0 0" fill="#bdaae2"/><path d="m408.214844 169.074219c5.625 7.222656 8.984375 16.285156 8.984375 26.144531 0 23.519531-19.058594 42.578125-42.578125 42.578125-5.449219 0-10.664063-1.019531-15.453125-2.894531 15.875-6.183594 27.125-21.613282 27.125-39.683594 0-9.859375-3.359375-18.925781-8.984375-26.148438 15.359375-5.644531 26.324218-20.40625 26.324218-37.722656 0-22.191406-17.988281-40.175781-40.179687-40.175781-2.039063 0-4.046875.152344-6.003906.449219.996093-3.53125 1.542969-7.25 1.542969-11.09375 0-16.90625-10.351563-31.390625-25.054688-37.46875 4.761719-1.976563 9.972656-3.058594 15.445312-3.058594 22.375 0 40.515626 18.140625 40.515626 40.527344 0 3.84375-.546876 7.5625-1.546876 11.09375 1.957032-.296875 3.96875-.453125 6.007813-.453125 22.191406 0 40.175781 17.988281 40.175781 40.179687 0 17.316406-10.960937 32.082032-26.320312 37.726563zm0 0" fill="#8e7dd1"/><path d="m356.246094 335.324219c0-15.929688-12.914063-28.84375-28.847656-28.84375-10.027344 0-18.859376 5.121093-24.027344 12.886719-1.335938-15.296876-14.507813-27.3125-30.570313-27.3125-16.949219 0-30.691406 13.378906-30.691406 29.875 0 7.054687 2.519531 13.535156 6.71875 18.644531-8.957031 5.21875-14.960937 14.753906-14.960937 25.65625 0 16.5 13.742187 29.875 30.691406 29.875 7.542968 0 14.449218-2.65625 19.792968-7.050781 3.597657 11.832031 14.589844 20.441406 27.597657 20.441406 15.929687 0 28.84375-12.914063 28.84375-28.84375 0-6.570313-2.199219-12.625-5.898438-17.472656 12.296875-3.300782 21.351563-14.519532 21.351563-27.855469zm0 0" fill="#bdaae2"/><path d="m334.898438 363.179688c3.695312 4.851562 5.890624 10.898437 5.890624 17.472656 0 15.925781-12.90625 28.84375-28.84375 28.84375-5.6875 0-10.992187-1.648438-15.453124-4.5 8.054687-5.101563 13.390624-14.105469 13.390624-24.34375 0-6.574219-2.191406-12.621094-5.890624-17.472656 12.289062-3.296876 21.34375-14.515626 21.34375-27.855469 0-10.25-5.347657-19.253907-13.402344-24.351563 4.46875-2.84375 9.773437-4.492187 15.460937-4.492187 15.9375 0 28.847657 12.917969 28.847657 28.84375 0 13.339843-9.054688 24.558593-21.34375 27.855469zm0 0" fill="#8e7dd1"/><g fill="#fff"><path d="m112.78125 93.101562h-3.09375v-2.960937c0-4.269531-3.457031-7.726563-7.726562-7.726563-4.265626 0-7.722657 3.460938-7.722657 7.726563v2.960937h-3.09375c-4.265625 0-7.726562 3.460938-7.726562 7.726563 0 4.269531 3.460937 7.726563 7.726562 7.726563h3.09375v3.21875c0 4.269531 3.457031 7.726562 7.722657 7.726562 4.269531 0 7.726562-3.460938 7.726562-7.726562v-3.21875h3.09375c4.265625 0 7.726562-3.457032 7.726562-7.726563 0-4.265625-3.460937-7.726563-7.726562-7.726563zm0 0"/><path d="m89.085938 169.335938h-3.089844v-2.960938c0-4.269531-3.460938-7.726562-7.726563-7.726562-4.269531 0-7.726562 3.457031-7.726562 7.726562v2.960938h-3.089844c-4.269531 0-7.726563 3.460937-7.726563 7.726562s3.457032 7.726562 7.726563 7.726562h3.089844v3.21875c0 4.265626 3.457031 7.726563 7.726562 7.726563 4.265625 0 7.726563-3.460937 7.726563-7.726563v-3.21875h3.089844c4.265624 0 7.726562-3.460937 7.726562-7.726562s-3.460938-7.726562-7.726562-7.726562zm0 0"/><path d="m166.347656 137.398438h-3.089844v-2.960938c0-4.265625-3.457031-7.726562-7.726562-7.726562-4.265625 0-7.726562 3.460937-7.726562 7.726562v2.960938h-3.089844c-4.265625 0-7.726563 3.460937-7.726563 7.726562 0 4.269531 3.460938 7.726562 7.726563 7.726562h3.089844v3.21875c0 4.269532 3.460937 7.726563 7.726562 7.726563 4.269531 0 7.726562-3.457031 7.726562-7.726563v-3.21875h3.089844c4.269532 0 7.726563-3.457031 7.726563-7.726562 0-4.265625-3.457031-7.726562-7.726563-7.726562zm0 0"/><path d="m207.554688 198.179688h-3.089844v-2.960938c0-4.269531-3.457032-7.726562-7.726563-7.726562-4.265625 0-7.726562 3.460937-7.726562 7.726562v2.960938h-3.089844c-4.265625 0-7.726563 3.460937-7.726563 7.726562 0 4.269531 3.460938 7.726562 7.726563 7.726562h3.089844v3.21875c0 4.269532 3.460937 7.726563 7.726562 7.726563 4.269531 0 7.726563-3.460937 7.726563-7.726563v-3.21875h3.089844c4.269531 0 7.726562-3.457031 7.726562-7.726562 0-4.265625-3.457031-7.726562-7.726562-7.726562zm0 0"/><path d="m214.769531 71.46875h-3.09375v-2.960938c0-4.269531-3.457031-7.726562-7.726562-7.726562-4.265625 0-7.722657 3.457031-7.722657 7.726562v2.960938h-3.09375c-4.265624 0-7.726562 3.460938-7.726562 7.726562 0 4.269532 3.460938 7.726563 7.726562 7.726563h3.09375v3.21875c0 4.265625 3.457032 7.726563 7.722657 7.726563 4.269531 0 7.726562-3.460938 7.726562-7.726563v-3.21875h3.09375c4.265625 0 7.722657-3.460937 7.722657-7.726563 0-4.265624-3.457032-7.726562-7.722657-7.726562zm0 0"/><path d="m259.066406 141.519531h-3.089844v-2.960937c0-4.269532-3.460937-7.726563-7.726562-7.726563-4.269531 0-7.726562 3.460938-7.726562 7.726563v2.960937h-3.089844c-4.269532 0-7.726563 3.460938-7.726563 7.726563 0 4.269531 3.457031 7.726562 7.726563 7.726562h3.089844v3.21875c0 4.269532 3.457031 7.726563 7.726562 7.726563 4.265625 0 7.726562-3.457031 7.726562-7.726563v-3.21875h3.089844c4.265625 0 7.726563-3.457031 7.726563-7.726562 0-4.265625-3.460938-7.726563-7.726563-7.726563zm0 0"/><path d="m300.273438 102.503906v-3.21875h3.089843c4.269531 0 7.726563-3.460937 7.726563-7.726562 0-4.269532-3.457032-7.726563-7.726563-7.726563h-3.089843v-2.960937c0-4.269532-3.460938-7.726563-7.726563-7.726563s-7.726563 3.457031-7.726563 7.726563v2.960937h-3.089843c-4.269531 0-7.726563 3.457031-7.726563 7.726563 0 4.265625 3.457032 7.726562 7.726563 7.726562h3.089843v3.21875c0 4.265625 3.460938 7.726563 7.726563 7.726563s7.726563-3.460938 7.726563-7.726563zm0 0"/><path d="m318.816406 192h-3.089844v-2.960938c0-4.269531-3.460937-7.726562-7.726562-7.726562-4.269531 0-7.726562 3.457031-7.726562 7.726562v2.960938h-3.089844c-4.269532 0-7.726563 3.460938-7.726563 7.726562 0 4.265626 3.457031 7.726563 7.726563 7.726563h3.089844v3.21875c0 4.265625 3.457031 7.726563 7.726562 7.726563 4.265625 0 7.726562-3.460938 7.726562-7.726563v-3.21875h3.089844c4.265625 0 7.726563-3.460937 7.726563-7.726563 0-4.265624-3.460938-7.726562-7.726563-7.726562zm0 0"/><path d="m356.933594 129.160156h-3.089844v-2.964844c0-4.265624-3.460938-7.722656-7.726562-7.722656-4.269532 0-7.726563 3.457032-7.726563 7.722656v2.964844h-3.089844c-4.269531 0-7.726562 3.457032-7.726562 7.726563 0 4.265625 3.457031 7.722656 7.726562 7.722656h3.089844v3.21875c0 4.269531 3.457031 7.726563 7.726563 7.726563 4.265624 0 7.726562-3.457032 7.726562-7.726563v-3.21875h3.089844c4.265625 0 7.726562-3.457031 7.726562-7.722656 0-4.269531-3.460937-7.726563-7.726562-7.726563zm0 0"/></g></svg>