<svg height="512pt" viewBox="0 0 512.00143 512" width="512pt" xmlns="http://www.w3.org/2000/svg"><path d="m363.183594 143.972656c-.851563 0-1.714844-.074218-2.5625-.21875l-107.433594-18.664062c-5.039062-.878906-9.269531-4.246094-11.25-8.949219-1.992188-4.703125-1.449219-10.09375 1.4375-14.296875 16.859375-24.640625 40.8125-47.152344 69.230469-65.113281 36.136719-22.835938 75.703125-35.871094 111.414062-36.6914065 38.4375-.8203125 68.378907 12.3632815 84.15625 37.3085935 4.421875 7.003906 2.328125 16.273438-4.675781 20.699219l-76.082031 48.074219c-3.355469 2.109375-7.484375 2.8125-11.308594 1.949218l-26.75-6.035156-6.035156 26.746094c-.878907 3.882812-3.25 7.253906-6.605469 9.375l-5.507812 3.488281c-2.417969 1.539063-5.199219 2.328125-8.027344 2.328125zm-42.570313-94.554687h.292969zm0 0" fill="#009954"/><path d="m490.578125 305.101562c-2.386719 0-4.761719-.570312-6.914063-1.683593l-53.246093-27.671875c-3.53125-1.84375-6.195313-4.996094-7.382813-8.789063l-8.277344-26.160156-26.132812 8.261719c-3.765625 1.230468-7.894531.863281-11.441406-.980469l-36.152344-18.78125c-1.699219-.878906-3.207031-2.078125-4.453125-3.527344l-82.335937-95.757812c-3.3125-3.855469-4.453126-9.097657-3.035157-13.976563 1.40625-4.863281 5.1875-8.6875 10.035157-10.164062 40.519531-12.277344 94.585937-4.132813 144.652343 21.882812 82.089844 42.671875 125.128907 117.011719 98 169.265625-1.832031 3.527344-4.996093 6.179688-8.789062 7.382813-1.480469.464844-3.003907.699218-4.527344.699218zm0 0" fill="#c3ea21"/><path d="m21.4375 305.101562c-5.421875 0-10.648438-2.941406-13.332031-8.085937-13.605469-26.191406-9.988281-58.679687 10.167969-91.492187 18.707031-30.441407 49.890624-58.050782 87.832031-77.769532 19.863281-10.3125 40.371093-17.886718 60.953125-22.484375 6.574218-1.554687 13.226562 1.550781 16.433594 7.425781l39.566406 72.246094c1.933594 3.546875 2.371094 7.707032 1.199218 11.574219-1.171874 3.867187-3.851562 7.089844-7.441406 8.949219l-82 42.609375c-3.558594 1.816406-7.644531 2.167969-11.441406.984375l-26.132812-8.261719-8.273438 26.160156c-1.1875 3.792969-3.855469 6.941407-7.386719 8.789063l-53.246093 27.671875c-2.210938 1.144531-4.570313 1.683593-6.898438 1.683593zm0 0" fill="#9cdd05"/><path d="m330.398438 490.398438h-148.796876l6.296876-69.398438c1.503906 0 18.300781-12.300781 18.300781-12.300781l-15.296875-17.699219 5.398437-60 20.402344-13.199219-17.402344-16.800781 7.5-80.699219 49.199219 16.5 51.898438 17.101563 4.503906 47.097656-19.800782 16.800781 22.796876 13.199219 5.703124 60-22.800781 16.800781 25.5 13.199219zm0 0" fill="#d97f4a"/><path d="m330.398438 490.398438h-74.398438v-253.597657l51.898438 17.101563 4.503906 47.097656-19.800782 16.800781 22.796876 13.199219 5.703124 60-22.800781 16.800781 25.5 13.199219zm0 0" fill="#d55f05"/><path d="m290.148438 152.625c-5.097657-22.5-17.101563-45.300781-35.101563-66.296875-15-18.300781-34.5-35.402344-57-49.503906-78.300781-49.199219-164.097656-49.199219-195.597656.601562-2.101563 3.601563-3.003907 7.5-2.101563 11.402344.898438 3.898437 3.300782 7.199219 6.597656 9.296875l76.203126 48.300781c3.300781 2.101563 7.5 2.699219 11.398437 1.800781l26.699219-6 6 26.699219c.902344 3.902344 3.300781 7.199219 6.601562 9.300781l70.5 44.699219c2.398438 1.5 5.097656 2.402344 8.101563 2.402344.898437 0 2.097656-.300781 3.296875-.601563l39.300781-9 23.699219-5.398437c8.101562-1.800781 13.203125-9.902344 11.402344-17.703125zm0 0" fill="#6b0"/><path d="m301 271c-33.089844 0-60-26.90625-60-60 0-33.089844 26.910156-60 60-60 33.09375 0 60 26.910156 60 60 0 33.09375-26.90625 60-60 60zm0 0" fill="#913f02"/><path d="m323.800781 421h-135.902343l3.003906-30h130.199218zm0 0" fill="#d55f05"/><path d="m315.398438 331h-119.097657l3-30h113.101563zm0 0" fill="#d55f05"/><path d="m315.398438 331h-59.398438v-30h56.402344zm0 0" fill="#913f02"/><path d="m323.800781 421h-67.800781v-30h65.101562zm0 0" fill="#913f02"/><path d="m391 497c0 8.398438-6.597656 15-15 15h-240c-8.398438 0-15-6.601562-15-15s6.601562-15 15-15h240c8.402344 0 15 6.601562 15 15zm0 0" fill="#c3ea21"/><path d="m391 497c0 8.398438-6.597656 15-15 15h-120v-30h120c8.402344 0 15 6.601562 15 15zm0 0" fill="#9cdd05"/><path d="m256 123.101562c-4.796875-1.5-9.898438-2.101562-15-2.101562-33 0-60 27-60 60s27 60 60 60c5.101562 0 10.203125-.601562 15-2.097656 25.800781-6.601563 45-30 45-57.902344 0-27.898438-19.199219-51.300781-45-57.898438zm0 0" fill="#e29a74"/><path d="m256 238.902344v-115.800782c25.800781 6.597657 45 30 45 57.898438 0 27.902344-19.199219 51.300781-45 57.902344zm0 0" fill="#d97f4a"/></svg>