<svg id="Capa_1" enable-background="new 0 0 512 512" height="512" viewBox="0 0 512 512" width="512" xmlns="http://www.w3.org/2000/svg"><g><path d="m284.006 491.268c-2.407-2.407-3.829-5.625-3.988-9.024l-5.351-114.007-18.667-28.458-16.133 26.902-5.424 115.563c-.16 3.4-1.582 6.618-3.988 9.024l-18.938 18.938c-.662.662-.193 1.794.743 1.794h89.941c.936 0 1.405-1.132.743-1.794z" fill="#9d6b6b"/><path d="m302.944 510.206-18.938-18.938c-2.407-2.407-3.829-5.625-3.988-9.024l-5.351-114.007-18.072-21.467-2.323 11.063 5.113 108.936c.16 3.4 1.582 6.618 3.988 9.024l6.829 6.829c5.13 5.13 1.497 13.902-5.759 13.902h-39.248l-13.68 13.68c-.662.662-.193 1.794.743 1.794h89.942c.937.002 1.406-1.13.744-1.792z" fill="#8b5e5e"/><path d="m256.834.422 30.561 41.605c.257.349.268.822.03 1.183l-15.158 22.952c-.455.688.039 1.606.864 1.606h41.451c.971 0 1.408 1.217.658 1.834l-32.965 27.153c-.75.617-.313 1.834.658 1.834h55.276c.971 0 1.408 1.217.658 1.834l-50.934 41.953c-.75.617-.313 1.834.658 1.834h49.132c.971 0 1.408 1.217.658 1.834l-37.364 30.775c-.75.617-.313 1.834.658 1.834h24.466c.971 0 1.408 1.217.658 1.834l-43.818 36.091c-.75.617-.313 1.834.658 1.834h49.045c1.008 0 1.421 1.294.601 1.878l-33.98 24.206c-.821.585-.407 1.878.601 1.878h67.993c.987 0 1.414 1.251.633 1.854l-75.518 58.334c-.781.604-.355 1.854.633 1.854h82.597c1.084 0 1.439 1.454.477 1.954l-47.278 24.567c-.721.375-.749 1.396-.05 1.809l40.408 23.922c.906.536.526 1.926-.527 1.926h-48.756c-.743 0-1.244.76-.952 1.443l17.195 40.128c.398.928-.633 1.818-1.493 1.29l-78.725-48.353c-.332-.204-.751-.204-1.084 0l-78.725 48.353c-.86.528-1.891-.362-1.493-1.29l17.195-40.128c.293-.683-.208-1.443-.951-1.443h-48.756c-1.053 0-1.434-1.389-.527-1.926l40.408-23.922c.699-.414.671-1.435-.05-1.809l-47.278-24.567c-.962-.5-.606-1.954.477-1.954h82.597c.987 0 1.414-1.251.633-1.854l-75.518-58.334c-.781-.604-.355-1.854.633-1.854h67.993c1.008 0 1.421-1.294.601-1.878l-33.98-24.206c-.821-.585-.407-1.878.601-1.878h49.045c.971 0 1.408-1.217.658-1.834l-43.818-36.091c-.75-.617-.313-1.834.658-1.834h24.466c.971 0 1.408-1.217.658-1.834l-37.364-30.775c-.75-.617-.313-1.834.658-1.834h49.132c.971 0 1.408-1.217.658-1.834l-50.934-41.953c-.75-.617-.313-1.834.658-1.834h55.276c.971 0 1.408-1.217.658-1.834l-32.965-27.153c-.75-.617-.313-1.834.658-1.834h41.451c.825 0 1.318-.917.864-1.606l-15.161-22.952c-.239-.362-.227-.834.03-1.183l30.561-41.605c.413-.563 1.255-.563 1.668 0z" fill="#478089"/><g fill="#3d6b73"><path d="m261.927 278.07c-4.095 3.163-1.858 9.717 3.316 9.717h51.768c.102 0 .202.003.301.008l51.218-39.563c.781-.604.354-1.854-.633-1.854h-64.941z"/><path d="m244.32 18.93c1.345 1.831 1.406 4.305.155 6.201l-8.976 13.591c-2.382 3.606.204 8.414 4.526 8.414h21.059c5.089 0 7.377 6.376 3.449 9.612l-14.081 11.598c-3.928 3.235-1.64 9.612 3.449 9.612h30.81c5.089 0 7.377 6.376 3.449 9.612l-32.05 26.399c-3.928 3.235-1.64 9.612 3.449 9.612h24.666c5.089 0 7.377 6.376 3.449 9.612l-18.479 15.221c-3.928 3.235-1.64 9.612 3.449 9.612 5.089 0 7.377 6.376 3.449 9.612l-24.933 20.537c-3.928 3.235-1.64 9.612 3.449 9.612h23.085c5.281 0 7.448 6.779 3.147 9.843l-11.62 8.278c-4.301 3.064-2.133 9.843 3.147 9.843h41.403c2.981 0 4.987 2.175 5.368 4.625l14.146-10.077c.821-.585.407-1.878-.601-1.878h-49.045c-.971 0-1.408-1.217-.658-1.834l43.818-36.091c.75-.617.313-1.834-.658-1.834h-24.466c-.971 0-1.408-1.217-.658-1.834l37.364-30.775c.75-.617.313-1.834-.658-1.834h-49.133c-.971 0-1.408-1.217-.658-1.834l50.934-41.953c.75-.617.313-1.834-.658-1.834h-55.276c-.971 0-1.408-1.217-.658-1.834l32.965-27.153c.75-.617.313-1.834-.658-1.834h-41.451c-.825 0-1.318-.917-.864-1.606l15.158-22.952c.239-.362.227-.834-.029-1.183l-30.561-41.614c-.414-.563-1.255-.563-1.669 0l-12.22 16.636z"/><path d="m376.242 308.42h-76.733l-4.317 2.243c-3.777 1.963-3.925 7.313-.262 9.481l19.812 11.729c4.749 2.811 2.755 10.092-2.763 10.092h-26.069c-3.894 0-6.52 3.982-4.986 7.561l9.131 21.309c1.003 2.342.272 4.637-1.26 6.079l46.473 28.544c.86.528 1.891-.362 1.493-1.29l-17.195-40.128c-.293-.683.208-1.443.952-1.443h48.756c1.053 0 1.434-1.389.527-1.926l-40.408-23.922c-.699-.414-.671-1.435.05-1.809l47.278-24.567c.96-.499.605-1.953-.479-1.953z"/><path d="m259.796 296.919c-2.246 0-4.489-.854-6.197-2.562l-7.199-7.2-4.141 4.141c-3.426 3.417-8.985 3.414-12.4 0l-14.855-14.855c-3.022-3.021-3.022-7.92-.001-10.942 3.022-3.021 7.921-3.022 10.942 0l10.114 10.113 4.141-4.142c3.414-3.413 8.972-3.418 12.392-.007l7.206 7.207 18.704-18.705c3.02-3.021 7.919-3.024 10.942 0 3.022 3.021 3.022 7.92.001 10.942l-23.447 23.448c-1.712 1.708-3.957 2.562-6.202 2.562zm.95-108.98 12.259-12.258h3.664c4.274 0 7.737-3.464 7.737-7.737s-3.464-7.737-7.737-7.737h-6.419c-2.36 0-4.579.92-6.238 2.585l-9.504 9.503-5.279-5.28c-1.666-1.666-3.883-2.584-6.24-2.584h-6.41c-4.274 0-7.737 3.464-7.737 7.737s3.464 7.737 7.737 7.737h3.656l8.04 8.04c1.72 1.716 3.976 2.573 6.233 2.573 2.26 0 4.519-.86 6.238-2.579zm-17.758-8.034h.01zm31.961-6.168.01-.01c-.003.003-.006.006-.01.01z"/></g><path d="m260.746 187.939 12.259-12.258h3.664c4.274 0 7.737-3.464 7.737-7.737 0-4.159-3.281-7.551-7.396-7.729 1.564 2.152 1.535 5.398-.918 7.419l-24.933 20.537c-.431.355-.787.748-1.073 1.166 1.362.788 2.891 1.182 4.421 1.182 2.261-.001 4.52-.861 6.239-2.58z" fill="#3d6e66"/><path d="m289.446 270.909c3.021-3.022 3.021-7.92-.001-10.942-.637-.638-1.359-1.14-2.128-1.509l-25.389 19.612c-4.095 3.163-1.858 9.717 3.316 9.717h7.325z" fill="#3d6e66"/></g></svg>