<?xml version="1.0" encoding="iso-8859-1"?>
<!-- Generator: Adobe Illustrator 19.0.0, SVG Export Plug-In . SVG Version: 6.00 Build 0)  -->
<svg version="1.1" id="Capa_1" xmlns="http://www.w3.org/2000/svg" xmlns:xlink="http://www.w3.org/1999/xlink" x="0px" y="0px"
	 viewBox="0 0 511.983 511.983" style="enable-background:new 0 0 511.983 511.983;" xml:space="preserve">
<path style="fill:#A4856D;" d="M177.704,498.304c9.6-8.896,19.824-31.04,30.96-75.92c0.048-0.176,0.08-0.32,0.096-0.496
	c0.56-3.472,8.608-58.944-9.584-111.536c-1.824-5.28,4.832-9.312,8.608-5.184l5.872,17.632c3.152,3.456,8.912,1.232,8.912-3.456
	V287.28c0-3.024,2.608-5.408,5.632-5.104l29.12,2.848c2.624,0.256,4.624,2.464,4.624,5.104v22.528c0,4.656,5.696,6.896,8.88,3.504
	l19.248-20.544c2.816-3.008,7.84-1.632,8.752,2.384l2.496,11.056c0.448,2-0.304,4.064-1.968,5.264
	c-11.44,8.192-48.48,45.072-31.904,131.376c0.048,0.256,0.096,0.48,0.192,0.72c1.104,3.28,4.816,29.312,27.056,50.384
	c2.944,2.8,1.728,7.712-2.224,8.704c-5.68,1.424-12.752,3.328-18,5.184c-15.264,5.392-35.92-7.488-42.832-12.288
	c-1.504-1.04-3.408-1.2-5.056-0.416c-7.824,3.712-30.64,13.936-39.536,11.392c-3.024-0.864-5.568-1.728-7.664-2.528
	C175.784,505.504,174.888,500.912,177.704,498.304z"/>
<path style="fill:#719C40;" d="M313.4,54.752C313.4,24.512,288.888,0,258.648,0c-17.776,0-33.536,8.512-43.536,21.648
	c-3.616-0.752-7.376-1.152-11.216-1.152c-30.24,0-54.752,24.512-54.752,54.752c0,0.208,0.032,0.4,0.032,0.608
	c-2.528-0.368-5.088-0.608-7.712-0.608c-30.24,0-54.752,24.512-54.752,54.752c0,3.808,0.4,7.536,1.136,11.12
	c-15.904,6.688-27.072,22.416-27.072,40.752c0,6.384,1.376,12.432,3.808,17.904c-11.2,5.856-18.864,17.568-18.864,31.072
	c0,19.36,15.696,35.056,35.056,35.056c13.824,0,25.744-8.016,31.456-19.648c6.464,4.688,14.384,7.488,22.976,7.488
	c21.664,0,39.216-17.568,39.216-39.232c0-0.976-0.08-1.936-0.144-2.896c4.944,1.84,10.256,2.896,15.84,2.896
	c19.712,0,36.448-12.56,42.752-30.112c2.16,0.208,4.352,0.336,6.56,0.336c35.904,0,64.992-29.104,64.992-64.992
	c0-9.792-2.224-19.024-6.096-27.36C307.656,82.576,313.4,69.344,313.4,54.752z"/>
<path style="fill:#7FB241;" d="M466.264,204.448c0-17.904-14.512-32.416-32.416-32.416c-0.144,0-0.304,0.016-0.448,0.016
	c1.008-3.344,1.568-6.88,1.568-10.544c0-20.048-16.256-36.304-36.304-36.304c-8.112,0-15.584,2.688-21.632,7.2
	c-4.784-6.72-11.184-12.192-18.64-15.872c6.112-7.568,9.84-17.136,9.84-27.616c0-24.336-19.728-44.064-44.064-44.064
	s-44.064,19.728-44.064,44.064c0,7.472,1.872,14.48,5.168,20.624c-16.848,7.264-28.656,24.016-28.656,43.52
	c0,10.064,3.152,19.376,8.512,27.04c-1.808,3.984-2.832,8.416-2.832,13.088c0,8.08,3.056,15.44,8.048,21.04
	c-8.288,5.712-13.728,15.264-13.728,26.08c0,13.472,8.416,24.944,20.272,29.536c-0.544,2.528-0.832,5.136-0.832,7.824
	c0,20.64,16.72,37.36,37.36,37.36c17.536,0,32.224-12.112,36.24-28.416c6.512,5.552,14.944,8.912,24.176,8.912
	c17.632,0,32.368-12.224,36.304-28.64c3.76,1.536,7.872,2.384,12.192,2.384c17.904,0,32.416-14.512,32.416-32.416
	c0-2.416-0.288-4.752-0.784-7.024C461.432,223.904,466.264,214.752,466.264,204.448z"/>
<path style="fill:#8BC540;" d="M297.24,230.272c0.704-3.072,1.12-6.272,1.12-9.552c0-21.024-15.296-38.432-35.376-41.824
	c-5.024-8.144-14-13.584-24.272-13.584c-15.2,0-27.584,11.904-28.432,26.896c-1.568-0.192-3.152-0.32-4.784-0.32
	c-19.008,0-34.864,13.456-38.56,31.376c-2.064-0.576-4.24-0.912-6.496-0.912c-12.816,0-23.264,9.984-24.064,22.592
	c-3.888-2.4-8.464-3.792-13.36-3.792c-11.216,0-20.72,7.232-24.192,17.264c-3.904-5.728-10.48-9.488-17.936-9.488
	c-12,0-21.712,9.728-21.712,21.712c0,12,9.728,21.712,21.712,21.712c1.76,0,3.472-0.24,5.104-0.624
	c-0.976,2.256-1.536,4.752-1.536,7.376c0,10.24,8.304,18.528,18.528,18.528c8.176,0,15.04-5.328,17.504-12.672
	c3.968,6.048,10.784,10.048,18.56,10.048c11.344,0,20.672-8.512,22-19.488c5.568,9.712,16.032,16.272,28.032,16.272
	c14.8,0,27.248-9.952,31.072-23.52c5.408,2.896,11.584,4.544,18.144,4.544c5.12,0,10-1.024,14.464-2.832
	c4.464,1.808,9.344,2.832,14.464,2.832c21.248,0,38.48-17.232,38.48-38.48C305.72,245.232,302.536,236.864,297.24,230.272z"/>
<g>
</g>
<g>
</g>
<g>
</g>
<g>
</g>
<g>
</g>
<g>
</g>
<g>
</g>
<g>
</g>
<g>
</g>
<g>
</g>
<g>
</g>
<g>
</g>
<g>
</g>
<g>
</g>
<g>
</g>
</svg>
