<svg id="Capa_1" enable-background="new 0 0 512 512" height="512" viewBox="0 0 512 512" width="512" xmlns="http://www.w3.org/2000/svg"><g><path d="m284.109 501.628c-6.837-6.837-10.678-16.11-10.678-25.78v-116.908c-5.699 1.837-11.436-13.556-17.43-13.556s-11.731 15.393-17.43 13.556v116.909c0 9.669-3.841 18.943-10.678 25.78l-8.303 8.303c-.763.764-.223 2.069.857 2.069h71.109c1.08 0 1.621-1.305.857-2.069z" fill="#c17d4f"/><path d="m292.412 509.931-8.303-8.303c-6.837-6.837-10.678-16.11-10.678-25.779v-116.909c-5.699 1.837-11.436-12.465-17.43-12.465-1.065 0-2.123.271-3.173.218v113.704c0 9.669 3.841 18.942 10.678 25.779 3.828 3.827 1.117 10.372-4.296 10.372h-27.085c-1.245 1.806-2.659 3.508-4.232 5.081l-8.303 8.303c-.764.764-.223 2.069.857 2.069h71.109c1.078-.001 1.619-1.306.856-2.07z" fill="#b16e3d"/><path d="m329.644 120.188c-3.024-3.024-7.688-4.04-13.35-3.304-1.11.144-1.82-1.155-1.106-2.016 16.132-19.458 22.631-39.621 14.456-47.797-8.541-8.541-30.166-1.066-50.402 16.677-.914.801-2.303-.029-2.026-1.212 1.853-7.916 2.906-16.986 2.906-26.625.001-30.879-10.799-55.911-24.122-55.911s-24.123 25.032-24.123 55.91c0 9.64 1.053 18.709 2.906 26.625.277 1.183-1.112 2.013-2.026 1.212-20.236-17.743-41.861-25.218-50.402-16.677-8.176 8.176-1.676 28.339 14.456 47.797.714.861.004 2.161-1.106 2.016-5.662-.736-10.326.28-13.35 3.304-8.176 8.176-1.676 28.339 14.456 47.797.714.861.004 2.161-1.106 2.016-5.662-.736-10.326.28-13.35 3.304-8.176 8.176-1.676 28.339 14.456 47.797.714.861.004 2.161-1.106 2.016-5.662-.736-10.326.28-13.35 3.304-8.176 8.175-1.676 28.339 14.456 47.797.714.861.004 2.161-1.106 2.016-5.662-.736-10.326.28-13.35 3.304-9.42 9.42.643 34.757 22.477 56.592 18.466 18.466 33.731 25.473 51.167 25.473s32.701-7.007 51.167-25.473c21.834-21.834 31.898-47.171 22.477-56.592-3.024-3.024-7.688-4.04-13.35-3.304-1.11.144-1.82-1.155-1.106-2.016 16.132-19.458 22.631-39.621 14.456-47.797-3.024-3.024-7.688-4.04-13.35-3.304-1.11.144-1.82-1.155-1.106-2.016 16.132-19.458 22.631-39.621 14.456-47.797-3.024-3.024-7.688-4.04-13.35-3.304-1.11.144-1.82-1.155-1.106-2.016 16.134-19.457 22.633-39.621 14.457-47.796z" fill="#95d6a4"/><g fill="#78c2a4"><path d="m329.644 120.188c-3.024-3.024-7.688-4.04-13.35-3.304-1.11.144-1.82-1.155-1.106-2.016 16.132-19.458 22.631-39.621 14.456-47.797-7.831-7.831-26.662-2.197-45.336 12.47-1.109 1.928-2.329 3.882-3.657 5.848-2.8 4.146-.969 9.879 3.719 11.625 1.564.583 2.931 1.435 4.067 2.571 6.933 6.933 3.313 22.487-7.786 38.921-2.8 4.146-.969 9.879 3.719 11.625 1.564.583 2.931 1.435 4.067 2.571 6.933 6.933 3.313 22.487-7.786 38.921-2.8 4.145-.969 9.879 3.719 11.625 1.564.583 2.932 1.435 4.067 2.571 6.933 6.933 3.313 22.487-7.786 38.921-2.8 4.145-.969 9.879 3.719 11.625 1.564.583 2.931 1.435 4.067 2.571 9.421 9.42-.643 34.757-22.477 56.592-18.466 18.467-33.731 25.473-51.167 25.473-1.72 0-3.419-.069-5.102-.209 16.343 14.997 30.425 20.813 46.31 20.813 17.436 0 32.701-7.007 51.167-25.473 21.834-21.834 31.898-47.171 22.477-56.592-3.024-3.024-7.688-4.04-13.35-3.304-1.11.144-1.82-1.155-1.106-2.016 16.132-19.458 22.631-39.621 14.456-47.797-3.024-3.024-7.688-4.04-13.35-3.304-1.11.144-1.82-1.155-1.106-2.016 16.132-19.458 22.631-39.621 14.456-47.797-3.024-3.024-7.688-4.04-13.35-3.304-1.11.144-1.82-1.155-1.106-2.016 16.132-19.459 22.631-39.623 14.455-47.798z"/><path d="m245.394 182.657c-19.712-19.713-42.852-31.184-57.869-27.632 2.581 4.262 5.694 8.628 9.285 12.96.714.861.005 2.158-1.103 2.017 10.608 1.388 25.822 10.643 38.76 23.582 1.895 1.895 3.736 3.859 5.47 5.839 1.528 1.742 3.665 2.634 5.814 2.634 1.807 0 3.623-.631 5.089-1.915 3.209-2.812 3.531-7.694.719-10.903-1.956-2.235-4.031-4.449-6.165-6.582z"/><path d="m255.51 300.199c-3.089-3.881-6.493-7.686-10.116-11.309-19.714-19.714-42.852-31.182-57.868-27.63 2.581 4.261 5.694 8.628 9.285 12.959.714.861.004 2.161-1.106 2.016 10.607 1.385 25.822 10.642 38.763 23.582 3.213 3.212 6.225 6.578 8.953 10.005 1.526 1.917 3.777 2.914 6.05 2.914 1.687 0 3.385-.549 4.807-1.681 3.338-2.656 3.89-7.518 1.232-10.856z"/><path d="m277.217 82.535c1.342-5.731 2.263-12.066 2.67-18.784-5.54 3.654-11.709 8.844-17.379 14.512-7.215 7.215-13.548 15.164-18.312 22.985-2.22 3.645-1.066 8.398 2.578 10.619 1.256.765 2.642 1.129 4.012 1.129 2.607 0 5.151-1.319 6.606-3.707 4.135-6.789 9.683-13.738 16.041-20.097 1.894-1.893 3.849-3.724 5.81-5.444-.914.801-2.303-.03-2.026-1.213z"/><path d="m315.189 221.102c3.605-4.348 6.728-8.731 9.315-13.008-15.022-3.462-38.089 7.995-57.754 27.659-3.018 3.018-3.018 7.909 0 10.928 1.509 1.508 3.486 2.263 5.463 2.263s3.955-.755 5.463-2.263c12.882-12.882 28.014-22.111 38.615-23.562-1.107.141-1.816-1.156-1.102-2.017z"/></g><path d="m315.189 221.102c3.605-4.348 6.728-8.731 9.315-13.008-8.837-2.037-20.46 1.091-32.535 8.015-.101 7.217-3.581 16.532-9.785 26.294 11.783-10.616 24.722-17.998 34.108-19.283-1.108.14-1.817-1.157-1.103-2.018z" fill="#66b394"/></g></svg>