<svg height="512pt" viewBox="0 0 512 512" width="512pt" xmlns="http://www.w3.org/2000/svg"><path d="m210.078125 300.121094c-.542969 0-1.101563-.027344-1.671875-.089844-31.84375-3.527344-61.582031-16.359375-85.957031-37.101562-6.296875-5.375-7.058594-14.839844-1.699219-21.152344 5.40625-6.3125 14.839844-7.0625 21.152344-1.699219 19.789062 16.847656 43.933594 27.273437 69.816406 30.132813 8.230469.90625 14.164062 8.335937 13.253906 16.566406-.847656 7.660156-7.351562 13.34375-14.894531 13.34375zm0 0" fill="#e19974"/><path d="m269.945312 270.324219c-7.632812 0-14.164062-5.800781-14.914062-13.546875-.804688-8.25 5.230469-15.585938 13.480469-16.378906 29.894531-2.898438 58.0625-16.1875 79.304687-37.425782l2.710938-2.710937c5.859375-5.859375 15.351562-5.859375 21.210937 0s5.859375 15.351562 0 21.210937l-2.710937 2.710938c-26.144532 26.144531-60.820313 42.507812-97.617188 46.070312-.5.042969-.980468.070313-1.464844.070313zm0 0" fill="#d77f4a"/><path d="m297.367188 370.785156c-8.128907 0-16.273438-.90625-24.289063-2.78125-8.054687-1.875-13.078125-9.949218-11.1875-18.019531 1.875-8.070313 9.886719-13.082031 18.015625-11.191406 23.261719 5.449219 48.296875-.320313 66.886719-15.382813 6.445312-5.242187 15.894531-4.230468 21.09375 2.199219 5.226562 6.429687 4.230469 15.878906-2.199219 21.09375-19.335938 15.6875-43.710938 24.082031-68.320312 24.082031zm0 0" fill="#d77f4a"/><path d="m301 496.097656c0 .300782-.300781.601563-.300781.902344h-119.398438c0-.300781-.300781-.601562-.300781-.902344l24.300781-363.699218c.601563-8.097657 7.800781-14.398438 15.898438-13.800782h39.601562c8.097657-.601562 15.296875 5.703125 15.898438 13.800782zm0 0" fill="#d97f4a"/><path d="m301 496.097656c0 .300782-.300781.601563-.300781.902344h-59.699219v-378.402344h19.800781c8.097657-.601562 15.296875 5.703125 15.898438 13.800782zm0 0" fill="#e19974"/><path d="m314.199219 31.800781c-16.800781-20.101562-43.800781-31.800781-73.199219-31.800781s-56.398438 11.699219-73.199219 31.800781c-27 6-46.800781 30-46.800781 58.199219 0 33 27 60 60 60 9 0 17.699219-2.101562 25.800781-6 11.097657 3.898438 22.800781 6 34.199219 6s23.101562-2.101562 34.199219-6c8.101562 3.898438 16.800781 6 25.800781 6 33 0 60-27 60-60 0-28.199219-19.800781-52.199219-46.800781-58.199219zm0 0" fill="#ade194"/><path d="m105 271h-60c-24.8125 0-45-20.1875-45-45 0-23.128906 17.550781-42.246094 40.035156-44.722656 13.109375-18.441406 37.863282-30.277344 64.964844-30.277344 41.351562 0 75 26.910156 75 60s-33.648438 60-75 60zm0 0" fill="#ade194"/><g fill="#80d261"><path d="m467 241h-60c-41.351562 0-75-26.910156-75-60s33.648438-60 75-60c27.101562 0 51.855469 11.835938 64.949219 30.277344 22.5 2.460937 40.050781 21.578125 40.050781 44.722656 0 24.8125-20.1875 45-45 45zm0 0"/><path d="m391 361c-33.648438 0-60-19.761719-60-45s26.351562-45 60-45 60 19.761719 60 45-26.351562 45-60 45zm0 0"/><path d="m275.199219 144c-11.097657 3.898438-22.800781 6-34.199219 6v-150c29.398438 0 56.398438 11.699219 73.199219 31.800781 27 6 46.800781 30 46.800781 58.199219 0 33-27 60-60 60-9 0-17.699219-2.101562-25.800781-6zm0 0"/></g><path d="m391 497c0 8.398438-6.597656 15-15 15h-240c-8.402344 0-15-6.601562-15-15 0-8.402344 6.597656-15 15-15h240c8.402344 0 15 6.597656 15 15zm0 0" fill="#ade194"/><path d="m391 497c0 8.398438-6.597656 15-15 15h-135v-30h135c8.402344 0 15 6.597656 15 15zm0 0" fill="#80d261"/></svg>