<svg height="512pt" viewBox="-18 0 512 512.001" width="512pt" xmlns="http://www.w3.org/2000/svg"><path d="m141.179688 330.3125s5.785156 18.492188 23.726562 34.363281c16.292969 14.417969 22.414062-22.652343 22.414062-22.652343-19.609374-11.628907-27.78125-30.554688-27.78125-30.554688s-5.390624-4.730469-16.210937.804688c-10.816406 5.539062-2.148437 18.039062-2.148437 18.039062zm0 0" fill="#ad7949"/><path d="m331.683594 363.820312c-24.414063-2.582031-44.621094-15.246093-44.621094-15.246093s-4.976562-21.128907 18.039062-26.976563c0 0 11.851563 15.960938 45.289063 20.078125 0 0 12.667969 17.253907-2.183594 22.144531-.859375-.179687-16.523437 0-16.523437 0zm0 0" fill="#ad7949"/><path d="m223.296875 182.085938 12.890625 15.765624c62.777344 85.40625 7.390625 100.25-48.867188 144.171876-32.289062 25.210937-34.847656 45.257812-26.484374 64.050781 13.4375 30.207031-14.464844 33.816406-14.464844 33.816406l76.667968 25.753906 80.691407-25.753906s-65.929688-29.808594-24.722657-81.09375c36.457032-45.375 57.191407-79.230469 7.625-151.949219l-33.203124-42.019531zm0 0" fill="#d19f62"/><path d="m303.734375 439.886719h-30.90625s-65.929687-29.800781-24.722656-81.097657c36.457031-45.367187 57.183593-79.230468 7.621093-151.9375l-23.570312-29.835937 21.273438-12.1875 33.203124 42.023437c49.5625 72.707032 28.835938 106.570313-7.625 151.9375-41.207031 51.296876 24.726563 81.097657 24.726563 81.097657zm0 0" fill="#ad7949"/><path d="m327.9375 486.246094v-36.054688c0-5.691406-4.609375-10.304687-10.300781-10.304687h-182.339844c-5.6875 0-10.300781 4.613281-10.300781 10.304687v36.054688zm0 0" fill="#96bc5e"/><path d="m327.941406 450.1875v36.058594h-30.902344v-36.058594c0-5.683594-4.617187-10.300781-10.304687-10.300781h30.90625c5.6875 0 10.300781 4.617187 10.300781 10.300781zm0 0" fill="#85993d"/><path d="m338.550781 465.644531c9.882813 0 17.226563 9.152344 15.082031 18.804688l-3.433593 15.449219c-1.570313 7.070312-7.839844 12.101562-15.082031 12.101562h-217.296876c-7.242187 0-13.515624-5.03125-15.085937-12.101562l-3.433594-15.449219c-2.144531-9.652344 5.199219-18.804688 15.085938-18.804688zm0 0" fill="#9e7f56"/><path d="m353.636719 484.441406-3.433594 15.453125c-1.574219 7.078125-7.847656 12.105469-15.089844 12.105469h-30.90625c7.242188 0 13.515625-5.027344 15.09375-12.105469l3.027344-13.648437.402344-1.804688c2.144531-9.640625-5.203125-18.800781-15.082031-18.800781h30.90625c9.878906 0 17.222656 9.160156 15.082031 18.800781zm0 0" fill="#87613c"/><path d="m444.351562 109.714844c0-16.214844-13.144531-29.359375-29.359374-29.359375-.476563 0-.945313.011719-1.414063.035156 2.222656-4.519531 3.472656-9.601563 3.472656-14.972656 0-18.777344-15.21875-33.996094-33.996093-33.996094-8.628907 0-16.5 3.21875-22.496094 8.519531-2.367188-16.753906-16.757813-29.636718-34.160156-29.636718-9.4375 0-17.984376 3.789062-24.214844 9.925781-5.433594-11.929688-17.453125-20.230469-31.417969-20.230469s-25.984375 8.300781-31.417969 20.230469c-6.226562-6.136719-14.777344-9.929688-24.210937-9.929688-17.40625 0-31.796875 12.886719-34.164063 29.640625-5.996094-5.300781-13.867187-8.519531-22.496094-8.519531-18.777343 0-33.996093 15.21875-33.996093 33.992187 0 5.375 1.25 10.457032 3.472656 14.976563-.46875-.023437-.941406-.039063-1.414063-.039063-16.214843 0-29.359374 13.144532-29.359374 29.363282 0 15.746094 12.402343 28.597656 27.96875 29.324218-.4375 2.175782-.667969 4.425782-.667969 6.730469 0 18.773438 15.222656 33.996094 33.996093 33.996094 8.527344 0 16.316407-3.148437 22.285157-8.335937 1.519531 17.65625 16.324219 31.515624 34.375 31.515624 9.957031 0 18.921875-4.222656 25.222656-10.96875 5.824219 10.820313 17.253906 18.179688 30.40625 18.179688s24.582031-7.359375 30.40625-18.179688c6.296875 6.746094 15.265625 10.96875 25.222656 10.96875 18.050781 0 32.855469-13.859374 34.371094-31.515624 5.96875 5.1875 13.757813 8.335937 22.289063 8.335937 18.773437 0 33.996093-15.222656 33.996093-33.996094 0-2.304687-.230469-4.554687-.667969-6.730469 15.570313-.726562 27.96875-13.574218 27.96875-29.324218zm0 0" fill="#92d37a"/><path d="m358.425781 31.996094c-2.027343-.378906-4.132812-.574219-6.273437-.574219-8.632813 0-16.503906 3.222656-22.5 8.519531-1.617188-11.40625-8.796875-21.015625-18.707032-25.980468 4.644532-2.339844 9.898438-3.660157 15.453126-3.660157 14.523437 0 26.960937 8.984375 32.027343 21.695313zm0 0" fill="#70ba4d"/><path d="m359.238281 179.023438c-4.460937 13.878906-17.480469 23.921874-32.839843 23.921874-5.554688 0-10.808594-1.316406-15.453126-3.65625 10.457032-5.234374 17.863282-15.636718 18.914063-27.855468 5.972656 5.179687 13.761719 8.332031 22.292969 8.332031 2.429687 0 4.800781-.257813 7.085937-.742187zm0 0" fill="#70ba4d"/><path d="m416.382812 139.042969c.433594 2.175781.671876 4.421875.671876 6.726562 0 18.78125-15.226563 33.996094-33.996094 33.996094-5.5625 0-10.808594-1.335937-15.433594-3.71875 10.992188-5.625 18.523438-17.070313 18.523438-30.277344 0-2.304687-.238282-4.550781-.671876-6.726562 15.566407-.730469 27.972657-13.578125 27.972657-29.328125 0-16.214844-13.148438-29.359375-29.363281-29.359375-.472657 0-.945313.007812-1.410157.03125 2.214844-4.511719 3.472657-9.589844 3.472657-14.96875 0-13.207031-7.53125-24.652344-18.53125-30.285157 4.625-2.371093 9.878906-3.710937 15.441406-3.710937 18.769531 0 33.996094 15.214844 33.996094 33.996094 0 5.378906-1.257813 10.457031-3.472657 14.96875.464844-.023438.9375-.03125 1.410157-.03125 16.214843 0 29.359374 13.144531 29.359374 29.359375 0 15.75-12.402343 28.597656-27.96875 29.328125zm0 0" fill="#70ba4d"/><path d="m185.089844 272.65625c0-13.902344-10.800782-25.273438-24.46875-26.203125.167968-1.257813.261718-2.539063.261718-3.84375 0-16.121094-13.070312-29.1875-29.191406-29.1875-4.214844 0-8.214844.898437-11.832031 2.507813-1.433594-2.636719-3.234375-5.039063-5.339844-7.144532-5.625-5.621094-13.394531-9.101562-21.976562-9.101562-11.789063 0-22.046875 6.566406-27.3125 16.242187-3.617188-1.605469-7.617188-2.503906-11.832031-2.503906-16.121094 0-29.1875 13.066406-29.1875 29.1875 0 1.304687.09375 2.585937.257812 3.84375-13.667969.925781-24.46875 12.300781-24.46875 26.203125s10.800781 25.273438 24.46875 26.199219c-.164062 1.261719-.257812 2.542969-.257812 3.847656 0 16.121094 13.066406 29.191406 29.1875 29.191406 4.214843 0 8.214843-.902343 11.832031-2.507812 5.265625 9.675781 15.523437 16.242187 27.3125 16.242187 8.582031 0 16.355469-3.476562 21.976562-9.101562 2.105469-2.101563 3.90625-4.507813 5.339844-7.140625 3.617187 1.605469 7.617187 2.507812 11.832031 2.507812 16.121094 0 29.191406-13.070312 29.191406-29.191406 0-1.304687-.09375-2.585937-.261718-3.847656 13.667968-.925781 24.46875-12.296875 24.46875-26.199219zm0 0" fill="#7fbf62"/><path d="m160.621094 298.855469c.164062 1.257812.257812 2.542969.257812 3.851562 0 16.113281-13.0625 29.1875-29.183594 29.1875-4.214843 0-8.222656-.898437-11.839843-2.503906-1.429688 2.625-3.234375 5.039063-5.335938 7.136719-5.625 5.625-13.390625 9.097656-21.972656 9.097656-5.636719 0-10.910156-1.492188-15.464844-4.109375 2.402344-1.359375 4.597657-3.046875 6.53125-4.984375 2.101563-2.101562 3.90625-4.511719 5.335938-7.140625 3.617187 1.605469 7.625 2.503906 11.839843 2.503906 16.121094 0 29.183594-13.074219 29.183594-29.183593 0-1.308594-.09375-2.597657-.257812-3.855469 13.671875-.925781 24.464844-12.300781 24.464844-26.195313 0-13.90625-10.792969-25.28125-24.464844-26.210937.164062-1.253907.257812-2.53125.257812-3.839844 0-16.125-13.0625-29.1875-29.183594-29.1875-4.214843 0-8.222656.898437-11.839843 2.503906-1.429688-2.636719-3.234375-5.039062-5.335938-7.140625-1.9375-1.933594-4.128906-3.625-6.53125-4.996094 4.554688-2.613281 9.828125-4.109374 15.464844-4.109374 8.582031 0 16.347656 3.484374 21.972656 9.109374 2.101563 2.101563 3.90625 4.5 5.335938 7.136719 3.617187-1.605469 7.625-2.5 11.839843-2.5 16.121094 0 29.183594 13.0625 29.183594 29.183594 0 1.308594-.09375 2.585937-.257812 3.84375 13.671875.925781 24.464844 12.300781 24.464844 26.207031 0 13.894532-10.792969 25.269532-24.464844 26.195313zm0 0" fill="#68a044"/><path d="m475.953125 367.433594c0-10.863282-8.4375-19.746094-19.113281-20.46875.128906-.984375.203125-1.984375.203125-3.003906 0-12.59375-10.210938-22.800782-22.800781-22.800782-3.292969 0-6.417969.703125-9.246094 1.957032-1.121094-2.054688-2.527344-3.933594-4.171875-5.578126-4.390625-4.394531-10.460938-7.109374-17.164063-7.109374-9.210937 0-17.226562 5.128906-21.339844 12.6875-2.824218-1.253907-5.949218-1.957032-9.242187-1.957032-12.59375 0-22.800781 10.207032-22.800781 22.800782 0 1.019531.070312 2.019531.199218 3.003906-10.675781.722656-19.113281 9.609375-19.113281 20.46875s8.4375 19.746094 19.113281 20.46875c-.128906.984375-.203124 1.984375-.203124 3.003906 0 12.59375 10.210937 22.804688 22.804687 22.804688 3.289063 0 6.414063-.703126 9.242187-1.957032 4.113282 7.558594 12.125 12.6875 21.335938 12.6875 6.707031 0 12.773438-2.71875 17.167969-7.113281 1.644531-1.640625 3.050781-3.519531 4.171875-5.578125 2.824218 1.257812 5.953125 1.960938 9.242187 1.960938 12.59375 0 22.804688-10.210938 22.804688-22.804688 0-1.019531-.074219-2.019531-.203125-3.003906 10.675781-.726563 19.113281-9.609375 19.113281-20.46875zm0 0" fill="#7fbf62"/><path d="m456.839844 387.902344c.132812.980468.207031 1.980468.207031 3 0 12.597656-10.210937 22.808594-22.808594 22.808594-3.285156 0-6.417969-.710938-9.242187-1.957032-1.121094 2.050782-2.523438 3.933594-4.171875 5.570313-4.390625 4.402343-10.457031 7.109375-17.164063 7.109375-5.871094 0-11.257812-2.082032-15.453125-5.550782.597657-.484374 1.164063-1.011718 1.710938-1.558593 1.648437-1.636719 3.050781-3.523438 4.171875-5.570313 2.824218 1.242188 5.953125 1.957032 9.242187 1.957032 12.597657 0 22.808594-10.210938 22.808594-22.808594 0-1.019532-.074219-2.019532-.207031-3 10.671875-.730469 19.121094-9.613282 19.121094-20.46875 0-10.859375-8.449219-19.75-19.121094-20.46875.132812-.992188.207031-1.988282.207031-3.011719 0-12.585937-10.210937-22.796875-22.808594-22.796875-3.285156 0-6.417969.703125-9.242187 1.957031-1.121094-2.058593-2.523438-3.933593-4.171875-5.574219-.546875-.542968-1.113281-1.070312-1.710938-1.554687 4.195313-3.480469 9.582031-5.5625 15.453125-5.5625 6.707032 0 12.773438 2.71875 17.164063 7.117187 1.648437 1.640626 3.050781 3.515626 4.171875 5.574219 2.824218-1.257812 5.953125-1.957031 9.242187-1.957031 12.597657 0 22.808594 10.210938 22.808594 22.796875 0 1.023437-.074219 2.019531-.207031 3.011719 10.671875.71875 19.121094 9.609375 19.121094 20.46875s-8.449219 19.738281-19.121094 20.46875zm0 0" fill="#68a044"/><g fill="#ead983"><path d="m180.109375 140.621094c-8.519531 0-15.453125-6.933594-15.453125-15.453125 0-8.523438 6.933594-15.453125 15.453125-15.453125s15.453125 6.929687 15.453125 15.453125c0 8.519531-6.933594 15.453125-15.453125 15.453125zm0-15.453125h.011719zm0-.003907h.011719zm0 0h.011719zm0 0h.011719zm0-.003906h.011719zm0 0h.011719zm0-.003906h.011719zm0 0"/><path d="m218.226562 87.050781c-8.519531 0-15.453124-6.933593-15.453124-15.453125 0-8.523437 6.933593-15.453125 15.453124-15.453125 8.519532 0 15.453126 6.929688 15.453126 15.453125 0 8.519532-6.933594 15.453125-15.453126 15.453125zm0-15.453125h.011719zm0 0h.011719zm0 0h.011719zm0-.003906h.011719zm0-.003906h.011719zm0 0h.011719zm0 0h.011719zm0 0"/><path d="m241.921875 167.402344c-8.523437 0-15.453125-6.929688-15.453125-15.453125 0-8.519531 6.929688-15.453125 15.453125-15.453125 8.519531 0 15.453125 6.933594 15.453125 15.453125 0 8.523437-6.933594 15.453125-15.453125 15.453125zm0-15.449219h.007813zm0-.003906h.007813zm0 0h.007813zm0 0h.007813zm0-.003907h.007813zm0 0h.007813zm0-.003906h.007813zm0 0"/><path d="m282.097656 115.894531c-8.519531 0-15.453125-6.929687-15.453125-15.453125 0-8.519531 6.933594-15.453125 15.453125-15.453125 8.519532 0 15.453125 6.933594 15.453125 15.453125 0 8.523438-6.933593 15.453125-15.453125 15.453125zm0-15.453125h.011719zm0 0h.011719zm0 0h.011719zm0 0h.011719zm0-.003906h.011719zm0-.003906h.011719zm0 0h.011719zm0 0"/><path d="m322.273438 67.476562c-8.519532 0-15.453126-6.929687-15.453126-15.453124 0-8.519532 6.933594-15.453126 15.453126-15.453126 8.523437 0 15.453124 6.933594 15.453124 15.453126 0 8.523437-6.929687 15.453124-15.453124 15.453124zm0-15.453124h.011718zm0 0h.011718zm0 0h.011718zm0-.003907h.011718zm0 0h.011718zm0-.003906h.011718zm0 0h.011718zm0 0"/><path d="m321.246094 172.554688c-8.523438 0-15.453125-6.933594-15.453125-15.453126 0-8.519531 6.929687-15.453124 15.453125-15.453124 8.519531 0 15.453125 6.933593 15.453125 15.453124 0 8.519532-6.933594 15.453126-15.453125 15.453126zm0-15.453126h.007812zm0 0h.007812zm0 0h.007812zm0 0h.007812zm0-.003906h.007812zm0-.003906h.007812zm0 0h.007812zm0 0"/><path d="m359.363281 118.984375c-8.523437 0-15.453125-6.929687-15.453125-15.453125 0-8.519531 6.929688-15.453125 15.453125-15.453125 8.519531 0 15.453125 6.933594 15.453125 15.453125 0 8.523438-6.933594 15.453125-15.453125 15.453125zm0-15.453125h.007813zm0 0h.007813zm0 0h.007813zm0 0h.007813zm-.003906-.003906h.011719zm0-.003906h.011719zm0 0h.011719zm0 0"/><path d="m404.691406 383.742188c-8.523437 0-15.453125-6.933594-15.453125-15.453126 0-8.519531 6.929688-15.453124 15.453125-15.453124 8.519532 0 15.449219 6.933593 15.449219 15.453124 0 8.519532-6.929687 15.453126-15.449219 15.453126zm0-15.453126h.007813zm0 0h.007813zm0 0h.007813zm0-.003906h.007813zm-.003906-.003906h.011719zm0 0h.011719zm0 0h.011719zm0 0"/><path d="m92.542969 286.90625c-8.519531 0-15.453125-6.933594-15.453125-15.453125 0-8.523437 6.933594-15.453125 15.453125-15.453125 8.523437 0 15.453125 6.929688 15.453125 15.453125 0 8.519531-6.929688 15.453125-15.453125 15.453125zm0-15.453125h.011719zm0 0h.011719zm0-.003906h.011719zm0 0h.011719zm0-.003907h.011719zm0 0h.011719zm0-.003906h.011719zm0 0"/></g></svg>