<svg height="512pt" viewBox="0 0 512 512" width="512pt" xmlns="http://www.w3.org/2000/svg"><path d="m331 360-18.300781 19.199219 18.300781 10.800781v103.398438h-150v-43.398438l22.199219-13.5-22.199219-16.5v-195c0-8.402344 6.597656-15 15-15h120c8.402344 0 15 6.597656 15 15zm0 0" fill="#d97f4a"/><path d="m331 360-18.300781 19.199219 18.300781 10.800781v103.398438h-75v-283.398438h60c8.402344 0 15 6.597656 15 15zm0 0" fill="#d55f05"/><path d="m271 435c0 8.398438-6.597656 15-15 15h-75v-30h75c8.402344 0 15 6.597656 15 15zm0 0" fill="#d55f05"/><path d="m331 360v30h-45c-8.402344 0-15-6.601562-15-15 0-8.402344 6.597656-15 15-15zm0 0" fill="#913f02"/><path d="m256 450v-30c8.402344 0 15 6.597656 15 15 0 8.398438-6.597656 15-15 15zm0 0" fill="#913f02"/><path d="m512 170.101562v197.398438c0 12.300781-10.199219 22.5-22.5 22.5s-22.5-10.199219-22.5-22.5v-82.5c0-8.402344-7.597656-15-16-15s-15 6.597656-15 15v135c0 16.5-13.5 30-30 30s-30-13.5-30-30v-165c0-8.402344-6.597656-15-15-15s-15 6.597656-15 15v82.5c0 12.300781-10.199219 22.5-22.5 22.5s-22.5-10.199219-22.5-22.5v-82.5c0-8.402344-6.597656-15-15-15s-15 6.597656-15 15v60.300781c0 7.796875-6.300781 14.398438-14.097656 14.699219-.300782 0-.300782 0-.601563 0h-.300781c-8.402344.300781-15 6.898438-15 15.300781v74.699219c0 16.5-13.5 30-30 30s-30-13.5-30-30v-225c0-31.5-20.097656-60-49.800781-70.5-6.300781-2.101562-10.5-9-9.898438-15.898438 6-61.800781 57.597657-108.601562 119.699219-108.601562 5.097656 0 10.199219.300781 15 1.199219h.902344c29.097656 3.902343 55.199218 18.300781 74.097656 39.902343l15.300781 54.597657 14.699219-25.5c17.699219-8.398438 37.5-12 57.898438-9.601563 53.699218 6.300782 93.101562 55.503906 93.101562 109.503906zm0 0" fill="#9cdd05"/><path d="m512 170.101562v197.398438c0 12.300781-10.199219 22.5-22.5 22.5s-22.5-10.199219-22.5-22.5v-82.5c0-8.402344-7.597656-15-16-15s-15 6.597656-15 15v135c0 16.5-13.5 30-30 30s-30-13.5-30-30v-165c0-8.402344-6.597656-15-15-15s-15 6.597656-15 15v82.5c0 12.300781-10.199219 22.5-22.5 22.5s-22.5-10.199219-22.5-22.5v-82.5c0-8.402344-6.597656-15-15-15s-15 6.597656-15 15v60.300781c0 7.796875-6.300781 14.398438-14.097656 14.699219-.300782 0-.300782 0-.601563 0h-.300781v-328.800781h.902344c29.097656 3.902343 55.199218 18.300781 74.097656 39.902343l15.300781 54.597657 14.699219-25.5c17.699219-8.398438 37.5-12 57.898438-9.601563 53.699218 6.300782 93.101562 55.503906 93.101562 109.503906zm0 0" fill="#6b0"/><path d="m141.714844 96.414062c-9.136719-3.546874-19.003906-5.632812-29.390625-6.234374-61.109375-3.523438-112.324219 49.753906-112.324219 110.964843v136.355469c0 12.425781 10.074219 22.5 22.5 22.5s22.5-10.074219 22.5-22.5v-82.5c0-8.289062 7.710938-15 16-15s15 6.710938 15 15v142.5c0 12.425781 10.074219 22.5 22.5 22.5s22.5-10.074219 22.5-22.5v-82.5c0-8.289062 6.710938-15 15-15s15 6.710938 15 15v105c0 16.570312 13.429688 30 30 30s30-13.429688 30-30v-225c0-44.339844-28.023438-84.007812-69.285156-98.585938zm0 0" fill="#c3ea21"/><g fill="#009954"><path d="m361 70.199219v94.800781c0 8.398438-6.597656 15-15 15s-15-6.601562-15-15v-123.898438c8.699219 9.898438 15.902344 21 21 33.597657 3-1.800781 6-3.300781 9-4.5zm0 0"/><path d="m286 150c-8.289062 0-15-6.710938-15-15v-30c0-8.289062 6.710938-15 15-15s15 6.710938 15 15v30c0 8.289062-6.710938 15-15 15zm0 0"/><path d="m436 240c-8.289062 0-15-6.710938-15-15v-30c0-8.289062 6.710938-15 15-15s15 6.710938 15 15v30c0 8.289062-6.710938 15-15 15zm0 0"/></g><path d="m241 105c0 8.285156-6.714844 15-15 15s-15-6.714844-15-15 6.714844-15 15-15 15 6.714844 15 15zm0 0" fill="#6b0"/><path d="m421 135c0 8.285156-6.714844 15-15 15s-15-6.714844-15-15 6.714844-15 15-15 15 6.714844 15 15zm0 0" fill="#009954"/><path d="m136 270c-8.289062 0-15-6.710938-15-15v-30c0-8.289062 6.710938-15 15-15s15 6.710938 15 15v30c0 8.289062-6.710938 15-15 15zm0 0" fill="#9cdd05"/><path d="m391 497c0 8.398438-6.597656 15-15 15h-240c-8.402344 0-15-6.601562-15-15 0-8.402344 6.597656-15 15-15h240c8.402344 0 15 6.597656 15 15zm0 0" fill="#c3ea21"/><path d="m391 497c0 8.398438-6.597656 15-15 15h-120v-30h120c8.402344 0 15 6.597656 15 15zm0 0" fill="#9cdd05"/></svg>