<svg height="512pt" viewBox="-50 0 512 512.001" width="512pt" xmlns="http://www.w3.org/2000/svg"><path d="m281.765625 216.285156 24.945313-24.988281c3.863281-3.867187 5.949218-9.105469 5.949218-14.570313v-52.074218h-29.875v41.5c0 2.734375-1.207031 5.355468-3.140625 7.285156l-22.59375 22.46875zm0 0" fill="#d69941"/><path d="m155.941406 198.054688-24.640625-24.617188c-1.933593-1.929688-3.042969-4.550781-3.042969-7.285156v-41.5h-29.875v52.074218c0 5.464844 1.988282 10.707032 5.851563 14.570313l26.675781 26.765625zm0 0" fill="#d69941"/><path d="m114.347656 450.1875v-190.582031c0-39.828125 32.289063-72.113281 72.113282-72.113281h38.117187c39.828125 0 72.113281 32.285156 72.113281 72.113281v190.585937h-182.34375zm0 0" fill="#e8ba5d"/><path d="m296.691406 259.605469v190.585937h-30.90625v-190.585937c0-39.828125-32.285156-72.113281-72.113281-72.113281h30.90625c39.828125 0 72.113281 32.285156 72.113281 72.113281zm0 0" fill="#d69941"/><path d="m296.691406 368.804688v15.453124h-15.453125c-4.265625 0-7.726562-3.460937-7.726562-7.726562s3.460937-7.726562 7.726562-7.726562zm0 0" fill="#b77930"/><path d="m296.691406 299.296875v15.390625c-.175781.023438-.339844.03125-.515625.03125h-18.542969c-4.265624 0-7.726562-3.460938-7.726562-7.726562 0-4.261719 3.460938-7.722657 7.726562-7.722657h18.542969c.175781 0 .339844.007813.515625.027344zm0 0" fill="#b77930"/><path d="m294.722656 242.8125c-.6875.207031-1.429687.320312-2.191406.320312h-20.046875c-4.265625 0-7.726563-3.449218-7.726563-7.726562 0-4.265625 3.460938-7.726562 7.726563-7.726562h16.769531c2.359375 4.769531 4.203125 9.839843 5.46875 15.132812zm0 0" fill="#b77930"/><path d="m235.910156 274.542969c0 16.785156-13.605468 30.390625-30.390625 30.390625-16.78125 0-30.390625-13.605469-30.390625-30.390625 0-16.785157 13.609375-30.390625 30.390625-30.390625 16.785157 0 30.390625 13.605468 30.390625 30.390625zm0 0" fill="#d1903b"/><g fill="#d69941"><path d="m134.4375 393.015625h-20.089844v-15.453125h20.089844c4.269531 0 7.726562 3.457031 7.726562 7.722656 0 4.269532-3.457031 7.730469-7.726562 7.730469zm0 0"/><path d="m232.820312 416.707031h-18.542968c-4.265625 0-7.726563-3.457031-7.726563-7.726562 0-4.265625 3.460938-7.722657 7.726563-7.722657h18.542968c4.265626 0 7.726563 3.457032 7.726563 7.722657 0 4.269531-3.460937 7.726562-7.726563 7.726562zm0 0"/><path d="m196.761719 352.835938h-18.542969c-4.265625 0-7.722656-3.457032-7.722656-7.726563 0-4.265625 3.457031-7.722656 7.722656-7.722656h18.542969c4.269531 0 7.726562 3.457031 7.726562 7.722656.003907 4.269531-3.457031 7.726563-7.726562 7.726563zm0 0"/><path d="m133.40625 294.117188h-18.542969v-15.453126h18.542969c4.269531 0 7.726562 3.457032 7.726562 7.726563 0 4.265625-3.457031 7.726563-7.726562 7.726563zm0 0"/></g><path d="m384.773438 134.953125c14.507812 0 26.269531-11.761719 26.269531-26.269531 0-14.507813-11.761719-26.269532-26.269531-26.269532-5.601563 0-10.785157 1.757813-15.050782 4.742188.066406-.886719.113282-1.777344.113282-2.683594 0-19.910156-16.144532-36.054687-36.058594-36.054687-10.097656 0-19.222656 4.15625-25.765625 10.847656 0-.183594.011719-.363281.011719-.546875 0-22.757812-18.449219-41.207031-41.207032-41.207031-8.894531 0-17.121094 2.828125-23.855468 7.621093-6.265626-14.773437-20.902344-25.132812-37.957032-25.132812-17.054687 0-31.6875 10.359375-37.953125 25.132812-6.730469-4.792968-14.960937-7.617187-23.855469-7.617187-22.757812 0-41.207031 18.449219-41.207031 41.207031 0 .179688.011719.363282.011719.542969-6.542969-6.691406-15.667969-10.847656-25.765625-10.847656-19.914063 0-36.058594 16.144531-36.058594 36.058593 0 .65625.023438 1.308594.058594 1.960938-4.046875-2.546875-8.832031-4.023438-13.964844-4.023438-14.507812 0-26.269531 11.761719-26.269531 26.269532 0 14.511718 11.761719 26.269531 26.269531 26.269531zm0 0" fill="#7fbf62"/><path d="m411.042969 108.683594c0 14.503906-11.765625 26.269531-26.269531 26.269531h-30.90625c14.503906 0 26.269531-11.765625 26.269531-26.269531s-11.765625-26.269532-26.269531-26.269532c-5.59375 0-10.785157 1.761719-15.050782 4.738282.070313-.886719.113282-1.769532.113282-2.675782 0-9.953124-4.039063-18.976562-10.558594-25.5-2.898438-2.894531-6.285156-5.304687-10.035156-7.074218.402343-.207032.8125-.390625 1.226562-.566406 4.367188-1.875 9.167969-2.917969 14.214844-2.917969 9.953125 0 18.976562 4.039062 25.496094 10.558593 6.523437 6.523438 10.558593 15.546876 10.558593 25.5 0 .90625-.039062 1.792969-.113281 2.675782 4.265625-2.976563 9.457031-4.738282 15.054688-4.738282 14.503906 0 26.269531 11.765626 26.269531 26.269532zm0 0" fill="#68a044"/><path d="m306.777344 48.625c-1.289063-.132812-2.585938-.207031-3.902344-.207031-5.050781 0-9.851562 1.042969-14.21875 2.917969-4.355469 1.875-8.28125 4.582031-11.546875 7.929687 0-.183594.011719-.359375.011719-.546875 0-11.371094-4.617188-21.671875-12.074219-29.132812-3.875-3.871094-8.519531-6.984376-13.683594-9.066407.886719-.371093 1.792969-.699219 2.722657-1 4.003906-1.304687 8.28125-2.007812 12.730468-2.007812 11.375 0 21.675782 4.617187 29.136719 12.074219 5.167969 5.171874 8.980469 11.714843 10.824219 19.039062zm0 0" fill="#68a044"/><path d="m238.785156 17.617188c-.949218-.074219-1.90625-.105469-2.875-.105469-4.449218 0-8.726562.703125-12.730468 2.011719-4.019532 1.304687-7.757813 3.210937-11.128907 5.613281-4.253906-10.042969-12.371093-18.039063-22.496093-22.140625 4.769531-1.933594 9.980468-2.996094 15.449218-2.996094 13.992188 0 26.34375 6.964844 33.78125 17.617188zm0 0" fill="#68a044"/><path d="m306.992188 486.246094v-36.058594c0-5.6875-4.609376-10.300781-10.300782-10.300781h-182.34375c-5.6875 0-10.300781 4.613281-10.300781 10.300781v36.058594zm0 0" fill="#96bc5e"/><path d="m306.992188 450.1875v15.453125h-30.902344v-15.453125c0-5.683594-4.617188-10.300781-10.304688-10.300781h30.90625c5.6875 0 10.300782 4.617187 10.300782 10.300781zm0 0" fill="#85993d"/><path d="m317.605469 465.640625c9.886719 0 17.226562 9.15625 15.085937 18.804687l-3.4375 15.453126c-1.570312 7.070312-7.839844 12.101562-15.082031 12.101562h-217.300781c-7.246094 0-13.515625-5.027344-15.085938-12.101562l-3.433594-15.453126c-2.144531-9.648437 5.199219-18.804687 15.082032-18.804687zm0 0" fill="#9e7f56"/><path d="m332.6875 484.441406-3.433594 15.453125c-1.5625 7.078125-7.839844 12.105469-15.082031 12.105469h-30.902344c7.242188 0 13.515625-5.027344 15.082031-12.105469l3.027344-13.648437.402344-1.804688c2.152344-9.640625-5.191406-18.800781-15.082031-18.800781h30.90625c9.886719 0 17.234375 9.160156 15.082031 18.800781zm0 0" fill="#87613c"/></svg>