<svg height="511pt" viewBox="-128 1 511 511.99963" width="511pt" xmlns="http://www.w3.org/2000/svg"><path d="m171.992188 439.886719c-3.050782-13.34375 7.820312-33.929688 13.675781-43.726563 1.371093-2.296875-.625-5.117187-3.25-4.621094-23.925781 4.546876-38.925781 20.703126-38.925781 20.703126-6.90625 15.535156-5.460938 33.847656 0 53.492187h29.617187zm0 0" fill="#6a6"/><path d="m198.089844 439.886719c-3.035156-10.375 1.328125-20.75 4.703125-26.671875 1.25-2.195313-.566407-4.90625-3.074219-4.578125-13.246094 1.734375-24.261719 8.144531-24.261719 8.144531-11.042969 20.210938-7.605469 35.316406 0 48.953125h23.40625zm0 0" fill="#508950"/><path d="m112.589844 412.242188s-15.003906-16.15625-38.929688-20.699219c-2.625-.5-4.621094 2.320312-3.25 4.617187 5.855469 9.796875 16.726563 30.382813 13.675782 43.726563v25.332031h31.332031c.003906 0 6.441406-40.023438-2.828125-52.976562zm0 0" fill="#6a6"/><path d="m80.621094 416.78125s-11.015625-6.40625-24.261719-8.144531c-2.503906-.324219-4.324219 2.382812-3.074219 4.578125 3.375 5.921875 7.742188 16.296875 4.703125 26.671875v25.847656h26.785157s5.601562-38.417969-4.152344-48.953125zm0 0" fill="#508950"/><path d="m229.511719 486.242188v-36.054688c0-5.6875-4.613281-10.300781-10.304688-10.300781h-182.335937c-5.6875 0-10.300782 4.609375-10.300782 10.300781v36.054688zm0 0" fill="#96bc5e"/><path d="m229.511719 450.191406v36.054688h-30.90625v-36.054688c0-5.699218-4.617188-10.304687-10.300781-10.304687h30.902343c5.6875 0 10.304688 4.605469 10.304688 10.304687zm0 0" fill="#85993d"/><path d="m240.121094 465.640625c9.886718 0 17.230468 9.152344 15.082031 18.804687l-3.433594 15.449219c-1.570312 7.070313-7.839843 12.101563-15.082031 12.101563h-217.296875c-7.242187 0-13.511719-5.03125-15.082031-12.101563l-3.433594-15.449219c-2.144531-9.652343 5.199219-18.804687 15.082031-18.804687zm0 0" fill="#9e7f56"/><path d="m255.203125 484.441406-3.433594 15.453125c-1.5625 7.066407-7.835937 12.105469-15.078125 12.105469h-30.90625c7.242188 0 13.515625-5.039062 15.082032-12.105469l3.027343-13.648437.402344-1.804688c2.152344-9.652344-5.191406-18.796875-15.082031-18.796875h30.90625c9.890625 0 17.234375 9.144531 15.082031 18.796875zm0 0" fill="#87613c"/><path d="m112.589844 439.886719v-367.765625h30.902344v367.765625" fill="#9e6f4f"/><path d="m29.609375 364.425781 92.785156-116.328125c2.890625-3.625 8.402344-3.625 11.292969 0l92.785156 116.328125c5.667969 7.109375-2.660156 16.8125-10.542968 12.289063l-82.765626-47.464844c-3.171874-1.820312-7.074218-1.820312-10.25 0l-82.761718 47.464844c-7.886719 4.523437-16.210938-5.179688-10.542969-12.289063zm0 0" fill="#cc8f66"/><path d="m215.921875 376.710938-19.675781-11.28125c-.183594-.339844-.421875-.671876-.679688-1l-82.980468-104.035157 9.808593-12.300781c2.894531-3.625 8.394531-3.625 11.289063 0l92.785156 116.335938c5.667969 7.109374-2.65625 16.800781-10.546875 12.28125zm0 0" fill="#b77649"/><path d="m29.609375 302.617188 92.785156-116.328126c2.890625-3.625 8.402344-3.625 11.292969 0l92.785156 116.328126c5.667969 7.105468-2.660156 16.808593-10.542968 12.289062l-82.765626-47.464844c-3.171874-1.820312-7.074218-1.820312-10.25 0l-82.761718 47.464844c-7.886719 4.519531-16.210938-5.179688-10.542969-12.289062zm0 0" fill="#e2a05d"/><path d="m215.921875 314.902344-19.675781-11.28125c-.183594-.339844-.421875-.671875-.679688-1l-82.980468-104.035156 9.808593-12.300782c2.894531-3.625 8.394531-3.625 11.289063 0l92.785156 116.335938c5.667969 7.109375-2.65625 16.800781-10.546875 12.28125zm0 0" fill="#cc824a"/><path d="m29.609375 240.808594 92.785156-116.328125c2.890625-3.625 8.402344-3.625 11.292969 0l92.785156 116.328125c5.667969 7.105468-2.660156 16.808594-10.542968 12.285156l-82.765626-47.460938c-3.171874-1.820312-7.074218-1.820312-10.25 0l-82.761718 47.460938c-7.886719 4.523438-16.210938-5.179688-10.542969-12.285156zm0 0" fill="#e8ba5d"/><path d="m215.921875 253.089844-19.675781-11.277344c-.183594-.339844-.421875-.671875-.679688-1l-82.980468-104.035156 9.808593-12.300782c2.894531-3.625 8.394531-3.625 11.289063 0l92.785156 116.335938c5.667969 7.105469-2.65625 16.800781-10.546875 12.277344zm0 0" fill="#d69941"/><path d="m29.609375 179 92.785156-116.328125c2.890625-3.628906 8.402344-3.628906 11.292969 0l92.785156 116.328125c5.667969 7.105469-2.660156 16.808594-10.542968 12.285156l-82.765626-47.460937c-3.171874-1.820313-7.074218-1.820313-10.25 0l-82.761718 47.460937c-7.886719 4.523438-16.210938-5.179687-10.542969-12.285156zm0 0" fill="#edd183"/><path d="m215.921875 191.28125-19.675781-11.277344c-.183594-.339844-.421875-.671875-.679688-1l-82.976562-104.035156 9.804687-12.300781c2.894531-3.625 8.394531-3.625 11.289063 0l92.789062 116.335937c5.664063 7.105469-2.660156 16.800782-10.550781 12.277344zm0 0" fill="#ddb44e"/><path d="m29.609375 117.191406 90.375-113.3125c4.125-5.171875 11.984375-5.171875 16.109375 0l90.375 113.3125c5.671875 7.105469-2.65625 16.808594-10.542969 12.285156l-82.761719-47.460937c-3.171874-1.820313-7.074218-1.820313-10.25 0l-82.761718 47.460937c-7.886719 4.523438-16.210938-5.179687-10.542969-12.285156zm0 0" fill="#ead983"/><path d="m215.921875 129.472656-19.675781-11.28125c-.183594-.339844-.421875-.667968-.679688-.996094l-82.976562-104.035156 7.457031-9.367187c4.140625-5.066407 11.878906-5.054688 15.996094.023437l90.429687 113.378906c5.664063 7.105469-2.660156 16.800782-10.550781 12.277344zm0 0" fill="#ddc668"/></svg>