<svg height="512pt" viewBox="-13 0 512 512.00091" width="512pt" xmlns="http://www.w3.org/2000/svg"><path d="m281.917969 188.523438v41.207031c0 17.070312-13.835938 30.90625-30.90625 30.90625h-98.382813c-59.453125 0-107.652344 48.195312-107.652344 107.652343 0 26.84375 9.820313 51.390626 26.070313 70.242188l9.976563 12.515625 67.277343-11.160156c-37.15625 0-67.277343-30.121094-67.277343-67.277344v-9.15625c0-37.15625 30.121093-67.277344 67.277343-67.277344h107.675781c34.136719 0 61.808594-27.675781 61.808594-61.8125v-46.699219zm0 0" fill="#d19f62"/><path d="m229.011719 486.246094v-36.054688c0-5.691406-4.613281-10.304687-10.304688-10.304687h-182.335937c-5.6875 0-10.300782 4.613281-10.300782 10.304687v36.054688zm0 0" fill="#e8ba5d"/><path d="m229.007812 450.1875v36.058594h-30.90625v-36.058594c0-5.6875-4.605468-10.300781-10.300781-10.300781h30.90625c5.695313 0 10.300781 4.617187 10.300781 10.300781zm0 0" fill="#d69941"/><path d="m239.621094 465.644531c9.886718 0 17.230468 9.152344 15.085937 18.804688l-3.433593 15.449219c-1.570313 7.070312-7.84375 12.101562-15.085938 12.101562h-217.296875c-7.242187 0-13.511719-5.03125-15.082031-12.101562l-3.433594-15.449219c-2.144531-9.652344 5.199219-18.804688 15.082031-18.804688zm0 0" fill="#9e7f56"/><path d="m254.710938 484.441406-3.441407 15.453125c-1.566406 7.078125-7.839843 12.105469-15.082031 12.105469h-30.90625c7.242188 0 13.515625-5.027344 15.082031-12.105469l3.039063-13.648437.402344-1.804688c2.144531-9.640625-5.199219-18.800781-15.089844-18.800781h30.902344c9.890624 0 17.234374 9.160156 15.09375 18.800781zm0 0" fill="#87613c"/><path d="m300.09375 132.042969-74.320312 59.054687-58.113282 73.378906c27.734375 2.132813 55.015625-7.960937 74.683594-27.628906l30.121094-30.121094c19.671875-19.667968 29.761718-46.949218 27.628906-74.683593zm0 0" fill="#92d37a"/><path d="m300.09375 132.042969-132.433594 132.433593c-2.132812-27.734374 7.960938-55.015624 27.628906-74.6875l30.121094-30.117187c19.667969-19.671875 46.949219-29.761719 74.683594-27.628906zm0 0" fill="#70ba4d"/><path d="m431.855469.28125-79.886719 66.355469-52.546875 66.078125c27.734375 2.132812 55.015625-7.960938 74.6875-27.628906l30.117187-30.121094c19.671876-19.667969 29.761719-46.949219 27.628907-74.683594zm0 0" fill="#70ba4d"/><path d="m431.855469.28125-132.433594 132.433594c-2.132813-27.734375 7.957031-55.015625 27.628906-74.6875l30.117188-30.117188c19.671875-19.671875 46.953125-29.761718 74.6875-27.628906zm0 0" fill="#92d37a"/><path d="m299.421875 132.042969 61.304687 79.660156 71.128907 52.773437c2.132812-27.734374-7.960938-55.015624-27.628907-74.6875l-30.121093-30.117187c-19.667969-19.671875-46.949219-29.761719-74.683594-27.628906zm0 0" fill="#92d37a"/><path d="m299.421875 132.042969 132.433594 132.433593c-27.734375 2.132813-55.015625-7.960937-74.683594-27.628906l-30.121094-30.121094c-19.671875-19.667968-29.761719-46.949218-27.628906-74.683593zm0 0" fill="#70ba4d"/><path d="m167.660156.28125 63.613282 77.332031 68.820312 55.101563c2.132812-27.734375-7.960938-55.015625-27.628906-74.683594l-30.121094-30.121094c-19.667969-19.671875-46.949219-29.761718-74.683594-27.628906zm0 0" fill="#70ba4d"/><path d="m167.660156.28125 132.433594 132.433594c-27.734375 2.132812-55.015625-7.960938-74.683594-27.628906l-30.121094-30.121094c-19.667968-19.667969-29.761718-46.949219-27.628906-74.683594zm0 0" fill="#92d37a"/><path d="m300.234375 132.378906-93.644531-8.242187-93.644532 8.242187c18.101563 21.121094 44.527344 33.273438 72.34375 33.273438h42.597657c27.816406 0 54.242187-12.15625 72.347656-33.273438zm0 0" fill="#68a044"/><path d="m300.234375 132.378906h-187.289063c18.101563-21.121094 44.527344-33.277344 72.34375-33.277344h42.597657c27.816406.003907 54.242187 12.15625 72.347656 33.277344zm0 0" fill="#7fbf62"/><path d="m486.570312 132.378906-95.453124-10.304687-91.835938 10.304687c18.101562 21.117188 44.53125 33.273438 72.347656 33.273438h42.59375c27.820313 0 54.246094-12.15625 72.347656-33.273438zm0 0" fill="#68a044"/><path d="m299.28125 132.378906c18.105469-21.121094 44.53125-33.277344 72.347656-33.277344h42.59375c27.816406 0 54.246094 12.15625 72.347656 33.277344zm0 0" fill="#7fbf62"/><path d="m207.554688 417.738281c0 12.230469-9.914063 22.148438-22.148438 22.148438-12.230469 0-22.148438-9.917969-22.148438-22.148438 0-12.234375 9.917969-22.148437 22.148438-22.148437 12.234375 0 22.148438 9.914062 22.148438 22.148437zm0 0" fill="#875d41"/><path d="m174.589844 411.558594c0 15.644531-12.683594 28.328125-28.328125 28.328125-15.648438 0-28.332031-12.683594-28.332031-28.328125 0-15.648438 12.683593-28.332032 28.332031-28.332032 15.644531 0 28.328125 12.683594 28.328125 28.332032zm0 0" fill="#9e6f4f"/><path d="m317.785156 209.125h-36.054687c-8.535157 0-15.453125-6.917969-15.453125-15.449219v-45.84375c0-8.535156 6.917968-15.453125 15.453125-15.453125h36.054687c8.535156 0 15.453125 6.917969 15.453125 15.453125v45.84375c0 8.53125-6.917969 15.449219-15.453125 15.449219zm0 0" fill="#ad7949"/><path d="m333.242188 147.832031v45.84375c0 8.527344-6.925782 15.449219-15.453126 15.449219h-30.90625c8.53125 0 15.453126-6.921875 15.453126-15.449219v-44.300781c0-8.527344-6.921876-16.996094-15.453126-16.996094h30.90625c8.53125 0 15.453126 6.921875 15.453126 15.453125zm0 0" fill="#875d41"/></svg>