<svg id="Layer_1" enable-background="new 0 0 512 512" height="512" viewBox="0 0 512 512" width="512" xmlns="http://www.w3.org/2000/svg"><path d="m483.967 124.479c32.702-52.098-3.797-124.37-69.231-124.37-28.449 0-55.57 14.964-70.461 40.739-23.413-10.731-50.462-11.804-74.707-2.782-27.686-36.238-76.442-47.452-116.735-29.477-65.532-29.551-140.472 20.939-136.822 93.587-30.256 34.748-15.641 88.974 27.119 104.532 20.607 38.874 64.804 58.871 107.194 49.272 17.188 20.123 42.029 32.582 68.736 33.986 8.882.449 16.745-5.674 18.46-14.405 2.999-15.279 7.387-20.51 15.942-52.191 6.596 9.496 14.504 17.843 23.984 24.035-2.965 10.554-5.069 21.486-6.279 32.663-.856 7.903 3.605 15.422 10.946 18.453 33.234 13.719 71.17 8.102 98.817-14.452 62.422 23.354 131.037-22.712 131.037-91.289 0-25.727-10.237-50.239-28-68.301z" fill="#fea0a8"/><path d="m483.986 124.439c26.328-42.05 7.786-98.093-36.346-117.515-7.464-3.284-16.201-1.092-21.235 5.327-23.184 29.565-27.801 49.156-29.894 84.619-1.663 28.403-3.732 63.75 52.675 107.384 11.158 8.632 24.782 17.773 41.231 20.11 9.535 1.359 18.46-5.115 20.108-14.653 5.488-31.766-4.555-63.096-26.539-85.272z" fill="#ffb9c3"/><path d="m460.255 148.726c-8.616-7.951-8.224-6.415-1.556-27.539 20.358-64.37-28.007-100.335-63.516-85.787-15.388 6.315-23.649 19.714-30.288 30.479-12.089 19.603-13.451 20.191-36.49 10.543-13.124-5.497-29.456-12.339-47.179-7.018-8.83 2.643-15.719 7.913-19.676 9.044-2.576.734-6.281-.613-7.781-2.835-2.695-3.99-4.507-14.246-11.215-23.15-10.407-13.801-29.684-20.223-50.302-16.763-24.639 4.132-40.007 18.495-69.752 7.507-3.403-1.257-7.639-2.822-12.845-3.314-23.655-2.224-40.767 19.65-43.065 41.19-1.594 15.051 2.166 28.381 1.397 38.926-.883 12.077-8.81 23.689-19.718 28.892-7.435 3.543-18.211 5.566-28.511 12.116-8.801 5.597-10.962 17.539-4.669 25.87 5.457 7.226 16.368 15.643 28.065 19.855 11.744 22.07 31.589 38.873 55.562 46.743 7.328 2.406 15.373-.17 19.946-6.387 24.764-33.663 42.879-20.194 79.682-25.013 18.469-2.432 34.615-9.572 50.304-15.21 1.827-.656 3.505-1.594 4.987-2.756 1.81.049 3.647-.177 5.467-.708 11.892-3.461 28.452-6.077 39.832 1.115 7.264 4.583 2.947 5.41 14.273 34.133 4.1 10.4 11.447 28.082 3.5 36.627-11.312 12.164-1.28 32.024 15.324 29.915 22.015-2.802 41.835-13.238 55.457-27.001.487-.312.962-.65 1.422-1.013 18.609-14.676 22.163-6.882 49.931-11.699 17.204-2.967 30.91-11.224 38.595-23.253 7.319-11.457 8.122-24.538 8.091-33.377-.127-36.929-15.259-50.892-25.272-60.132z" fill="#ea8692"/><path d="m304.534 222.546c-25.235-8.218-38.098-46.359-43.519-68.363-1.936-7.854-9.43-13.032-17.459-12.057-8.031.973-14.072 7.786-14.077 15.876-.008 16.359-3.576 45.697-20.526 92.556-25.99 71.847 13.771 241.923 15.476 249.128 1.71 7.216 8.154 12.314 15.571 12.314h48c8.836 0 16-7.163 16-16v-160.75c0-34.569-1.698-59.32 10.553-91.852 3.214-8.533-1.35-18.028-10.019-20.852z" fill="#c79a83"/><path d="m336 512h-160c-8.836 0-16-7.163-16-16s7.164-16 16-16h160c8.836 0 16 7.163 16 16s-7.164 16-16 16z" fill="#a07765"/><g fill="#ea8692"><circle cx="384" cy="336" r="16"/><circle cx="128" cy="304" r="16"/><circle cx="448" cy="368" r="16"/><circle cx="352" cy="400" r="16"/></g><path d="m442.794 179.589c-6.295-5.774-15.992-5.238-22.226.603-8.363 7.836-20.663 11.808-36.568 11.808-48.439 0-75.886 11.686-85.438 16.709-.294.155-.581.317-.861.487-4.532 2.749-10.411 2.001-13.694-2.16-12.153-15.404-19.299-37.868-22.991-52.853-2.238-9.083-11.59-14.063-20.087-11.51-24.268 7.292-55.636-4.613-76.44-19.114 7.093-10.908 21.138-26.57 43.734-27.555 8.868-.387 16.08-7.695 15.768-16.566-.31-8.84-7.718-15.77-16.574-15.427-34.205 1.249-55.646 22.174-67.275 38.575-11.168-10.725-14.442-14.917-14.859-15.506-2.976-4.199-7.75-7.08-13.283-7.08-12.591 0-20.145 13.851-13.591 24.414-1.506.939 27.333 29.798 40.655 40.145-19.355 8.469-34.208 17.085-35.128 17.622-7.63 4.453-10.205 14.245-5.755 21.877 4.436 7.608 14.223 10.224 21.878 5.765.286-.167 27.072-15.685 53.825-24.445 18.355 7.963 37.111 11.671 54.287 11.563-2.167 17.152-7.486 41.185-19.217 73.617-11.775 32.552-11.875 88.212-.297 165.435 1.148 7.655 7.611 13.391 15.348 13.621 7.676.233 14.519-5.059 16.13-12.686 4.463-21.097 6.906-35.698 16.867-54.355 6.582-12.355 7.703-12.781 29.978-11.354 4.422.278 8.745-1.273 11.968-4.299 6.074-5.697 5.077-11.491 5.01-22.675-.172-28.992-.308-51.893 10.596-80.846.127-.338.243-.68.346-1.024 1.333-4.45 4.502-8.133 8.892-9.65 11.194-3.867 31.059-8.725 60.208-8.725 24.676 0 44.558-7.089 59.092-21.068 6.614-6.363 6.571-17.042-.298-23.343zm-317.203-92.003c-.098-.159-.187-.324-.29-.478.22.312.304.47.304.47z" fill="#a07765"/></svg>