<svg id="Capa_1" enable-background="new 0 0 511.999 511.999" height="512" viewBox="0 0 511.999 511.999" width="512" xmlns="http://www.w3.org/2000/svg"><g><path d="m68.036 507.603c5.863 5.861 15.352 5.861 21.213 0l42.356-42.427c2.816-2.816 4.391-6.628 4.391-10.605v-36.213l111.123-111.052-42.426-42.426-111.051 111.123h-36.213c-3.977 0-7.789 1.575-10.605 4.391l-42.428 42.356c-5.861 5.861-5.861 15.35 0 21.213zm-4.391-101.603h29.996l12.359 12.358v29.996l-27.356 27.429-42.427-42.427z" fill="#fff"/><path d="m225.906 201.24 33.642-33.642c18.376-18.376 42.645-31.271 68.342-36.315 14.471-2.807 29.48 1.926 40.19 12.636s15.443 25.719 12.658 40.128c-5.067 25.759-17.961 50.028-36.337 68.405l-33.642 33.642 53.033 53.033c5.863 5.863 15.35 5.863 21.213 0l33.768-33.766c75.396-75.395 107.919-182.829 87.006-287.373-1.181-5.945-5.821-10.585-11.766-11.766-104.544-20.915-211.977 11.608-287.373 87.004l-33.766 33.768c-5.863 5.863-5.863 15.35 0 21.213z" fill="#fff"/><path d="m351.281 178.328c1.904-9.82-7.789-19.514-17.609-17.609-19.898 3.906-38.687 13.87-52.908 28.092l-54.857 54.857 42.426 42.426 54.857-54.857c14.22-14.223 24.185-33.011 28.091-52.909z" fill="#fff" /></g></svg>