<svg height="512pt" viewBox="-31 0 512 512" width="512pt" xmlns="http://www.w3.org/2000/svg"><path d="m285 211h-30c-8.289062 0-15-6.710938-15-15s6.710938-15 15-15h30c31.742188 0 60.160156-20.097656 70.722656-49.996094 2.769532-7.808594 11.308594-11.878906 19.144532-9.152344 7.808593 2.765626 11.910156 11.335938 9.15625 19.144532-14.792969 41.878906-54.59375 70.003906-99.023438 70.003906zm0 0" fill="#dab46b"/><path d="m255 391c-8.289062 0-15-6.710938-15-15s6.710938-15 15-15c24.8125 0 45-20.1875 45-45 0-8.289062 6.710938-15 15-15s15 6.710938 15 15c0 41.351562-33.648438 75-75 75zm0 0" fill="#dab46b"/><path d="m195 451c-41.351562 0-75-33.648438-75-75 0-8.289062 6.710938-15.851562 15-15.851562s15 5.847656 15 14.136718v1.714844c0 24.8125 20.1875 45 45 45 8.289062 0 15 6.710938 15 15s-6.710938 15-15 15zm0 0" fill="#cba763"/><path d="m195 271h-60c-41.351562 0-75-33.648438-75-75 0-8.289062 6.710938-15 15-15s15 6.710938 15 15c0 24.8125 20.1875 45 45 45h60c8.289062 0 15 6.710938 15 15s-6.710938 15-15 15zm0 0" fill="#cba763"/><path d="m315 331c-42.757812 0-75-19.351562-75-45s32.242188-45 75-45 75 19.351562 75 45-32.242188 45-75 45zm0 0" fill="#80d261"/><path d="m150 391c-33.648438 0-60-19.761719-60-45s26.351562-45 60-45 60 19.761719 60 45-26.351562 45-60 45zm0 0" fill="#9bd069"/><path d="m360 31c-20.597656 0-40.691406 5.902344-56.601562 16.597656l-33.398438 58.402344c0 13.738281 4.453125 27.15625 12.890625 38.804688 2.8125 3.894531 7.339844 6.195312 12.144531 6.195312h129.933594c4.804688 0 9.328125-2.300781 12.140625-6.195312 8.4375-11.648438 12.890625-25.066407 12.890625-38.804688 0-41.351562-40.371094-75-90-75zm0 0" fill="#80d261"/><path d="m131.585938 211h-113.171876c-5.800781 0-11.089843-3.355469-13.566406-8.597656-3.222656-6.8125-4.847656-14.019532-4.847656-21.402344 0-33.089844 33.648438-60 75-60s75 26.910156 75 60c0 7.382812-1.625 14.589844-4.847656 21.402344-2.476563 5.242187-7.765625 8.597656-13.566406 8.597656zm0 0" fill="#aad880"/><path d="m270 106v385.300781h-90v-385.300781c0-8.402344 6.597656-15 15-15h60c8.402344 0 15 6.597656 15 15zm0 0" fill="#dab46b"/><path d="m270 106v385.300781h-45v-400.300781h30c8.402344 0 15 6.597656 15 15zm0 0" fill="#cba763"/><path d="m225 0c-58.800781 0-105 33-105 75 0 14.097656 5.398438 27.898438 15.601562 39.898438 3 3.300781 7.199219 5.101562 11.398438 5.101562h156c4.199219 0 8.402344-1.800781 11.398438-5.101562 10.203124-12 15.601562-25.800782 15.601562-39.898438 0-42-46.199219-75-105-75zm0 0" fill="#aad880"/><path d="m330 75c0 14.097656-5.398438 27.898438-15.601562 39.898438-3 3.300781-7.199219 5.101562-11.398438 5.101562h-78v-120c58.800781 0 105 33 105 75zm0 0" fill="#9bd069"/><path d="m360 497c0 8.398438-6.597656 15-15 15h-240c-8.402344 0-15-6.601562-15-15 0-8.402344 6.597656-15 15-15h240c8.402344 0 15 6.597656 15 15zm0 0" fill="#aad880"/><path d="m360 497c0 8.398438-6.597656 15-15 15h-120v-30h120c8.402344 0 15 6.597656 15 15zm0 0" fill="#9bd069"/></svg>