<svg id="Capa_1" enable-background="new 0 0 512 512" height="512" viewBox="0 0 512 512" width="512" xmlns="http://www.w3.org/2000/svg"><g><g><g><path d="m236.847 349.62c-1.977 0-3.955-.755-5.464-2.263l-78.813-78.813c-3.017-3.017-3.017-7.909 0-10.927 3.018-3.017 7.909-3.017 10.928 0l78.813 78.813c3.017 3.017 3.017 7.909 0 10.927-1.509 1.509-3.487 2.263-5.464 2.263z" fill="#dab46b"/></g></g><path d="m85.464 214.164c-.478.048-.953.108-1.426.182-15.308 2.396-26.42 14.617-37.288 19.251-17.21 7.337-23.314 12.919-23.314 23.547s6.105 16.21 23.314 23.547c10.868 4.634 21.981 16.855 37.29 19.251 12.678 1.984 27.248-5.808 41.795-5.808 14.548 0 29.119 7.792 41.798 5.808 15.308-2.396 26.42-14.617 37.288-19.251 12.043-5.135 18.648-9.41 21.528-15.156l.52-15.631c-2.556-6.34-9.214-10.836-22.048-16.307-6.514-2.777-13.116-8.28-20.656-12.759z" fill="#aad880"/><path d="m204.921 233.596c-6.514-2.777-13.116-8.28-20.656-12.759-1.274.517-2.582.97-3.928 1.342 2.608 2.191 4.368 4.498 5.425 7.121l-.52 15.631c-2.88 5.746-9.485 10.022-21.528 15.156-10.868 4.633-21.98 16.855-37.288 19.251-12.678 1.984-27.249-5.808-41.798-5.808-14.1 0-28.222 7.32-40.62 5.964.881.394 1.795.793 2.742 1.197 10.868 4.634 21.981 16.855 37.29 19.251 12.678 1.984 27.248-5.808 41.795-5.808 14.548 0 29.119 7.792 41.798 5.808 15.308-2.396 26.42-14.617 37.288-19.251 12.043-5.135 18.648-9.41 21.528-15.156l4.972-5.644-4.452-9.987c-2.556-6.341-9.214-10.836-22.048-16.308z" fill="#9bd069"/><g><g><path d="m258.401 394.928c-1.978 0-3.955-.754-5.464-2.263-3.017-3.017-3.017-7.909 0-10.927l84.503-84.503c3.018-3.018 7.909-3.018 10.928 0 3.017 3.017 3.017 7.909 0 10.927l-84.503 84.503c-1.509 1.509-3.487 2.263-5.464 2.263z" fill="#cba763"/></g></g><path d="m399.733 299.673c-8.051-3.433-16.284-12.487-27.625-14.261-9.392-1.47-20.186 4.303-30.963 4.303-10.778 0-21.572-5.773-30.964-4.303-11.34 1.775-19.573 10.829-27.624 14.261-10.226 4.36-15.159 7.883-16.711 13.169l-2.574 4.288 2.889 5.191c1.846 4.781 6.782 8.141 16.396 12.24 8.051 3.433 16.284 12.487 27.625 14.261 9.392 1.47 20.186-4.303 30.963-4.303 10.778 0 21.572 5.773 30.964 4.303 11.34-1.775 19.573-10.829 27.624-14.261 12.749-5.436 17.272-9.571 17.272-17.444s-4.523-12.008-17.272-17.444z" fill="#aad880"/><g><g><path d="m235.319 410.88c-1.978 0-3.955-.754-5.464-2.263l-40.536-40.537c-3.017-3.017-3.017-7.909 0-10.927 3.019-3.018 7.91-3.017 10.928 0l40.536 40.537c3.017 3.017 3.017 7.909 0 10.927-1.509 1.509-3.487 2.263-5.464 2.263z" fill="#dab46b"/></g></g><g><g><path d="m258.877 431.774c-1.978 0-3.955-.754-5.464-2.263-3.017-3.018-3.017-7.909.001-10.927l31.965-31.964c3.017-3.018 7.909-3.017 10.927 0 3.017 3.018 3.017 7.909-.001 10.927l-31.965 31.964c-1.508 1.509-3.486 2.263-5.463 2.263z" fill="#cba763"/></g></g><path d="m296.516 495.076c-16.358-16.359-25.887-38.324-26.656-61.446l-6.393-192.345c-3.466-2.289 4.996-24.257 1.659-25.68-14.745-6.286-34.173 8.473-37.056 1.165l-7.207 216.86c-.769 23.122-10.297 45.087-26.656 61.446l-14.973 14.973c-.72.72-.21 1.951.808 1.951h130.639c1.018 0 1.528-1.231.808-1.951z" fill="#dab46b"/><path d="m311.489 510.049-14.973-14.973c-16.359-16.359-25.887-38.324-26.656-61.446l-6.393-192.345c-3.466-2.289-2.567-19.025-5.904-20.448-9.938-4.237-20.891 6.724-25.084 2.508l6.475 194.832c.769 23.122 10.297 45.087 26.656 61.446 6.245 6.245 1.822 16.924-7.01 16.924h-65.865l-13.501 13.502c-.72.72-.21 1.951.808 1.951h130.639c1.018 0 1.528-1.231.808-1.951z" fill="#cba763"/><path d="m256.673 208.624c2.651-1.13 1.949-29.555 4.669-31.282l-2.256-67.869c-4.567-.388-8.481-21.271-11.413-21.271s-11.47 20.883-16.037 21.271l-2.981 89.682c3.26-6.623 14.179 15.369 28.018 9.469z" fill="#dab46b"/><path d="m384.498 58.591c0 14.441-8.295 22.025-31.678 31.995-14.766 6.296-29.865 22.902-50.665 26.157-17.227 2.696-37.025-7.892-56.793-7.892-19.767 0-39.564 10.588-56.79 7.892-20.801-3.255-35.901-19.861-50.668-26.157-23.384-9.97-31.678-17.554-31.678-31.995s8.295-22.025 31.678-31.995c14.766-6.296 29.865-22.902 50.665-26.157 17.227-2.696 37.025 7.892 56.793 7.892 19.767 0 39.564-10.588 56.79-7.892 20.801 3.255 35.901 19.861 50.668 26.157 23.383 9.97 31.678 17.555 31.678 31.995z" fill="#aad880"/><path d="m229.079 186.047c0 9.161-5.262 13.972-20.096 20.297-9.368 3.994-18.946 14.528-32.141 16.594-10.928 1.71-23.488-5.006-36.029-5.006-12.54 0-25.099 6.717-36.026 5.007-13.196-2.065-22.775-12.6-32.143-16.594-14.834-6.325-20.096-11.136-20.096-20.297s5.262-13.972 20.096-20.297c9.368-3.994 18.946-14.528 32.141-16.594 10.928-1.71 23.488 5.006 36.029 5.006 12.54 0 25.099-6.717 36.026-5.007 13.196 2.065 22.775 12.6 32.143 16.594 14.834 6.324 20.096 11.136 20.096 20.297z" fill="#aad880"/><path d="m279.184 114.857c-2.998 3.481-4.265 7.379-4.265 12.325 0 11.087 6.368 16.91 24.321 24.564 11.337 4.834 22.93 17.583 38.901 20.082 13.225 2.07 28.424-6.059 43.6-6.059 15.177 0 30.377 8.129 43.603 6.059 15.969-2.499 27.561-15.249 38.899-20.082 17.953-7.654 24.321-13.477 24.321-24.564s-6.368-16.91-24.321-24.564c-11.338-4.834-22.931-17.583-38.901-20.082-13.225-2.07-28.424 6.059-43.6 6.059-6.203 0-12.411-1.358-18.485-2.823z" fill="#aad880"/><path d="m433.993 181.725c-5.159-2.2-10.367-5.896-15.946-9.662-11.382-.82-9.427-26.996-21.881-26.996-15.176 0-35.351 13.123-48.576 11.053-8.915-1.395-25.915 9.723-32.818 5.1-6.555-1.456-12.896-2.421-18.868-1.486-17.487 2.737-30.181 16.698-42.596 21.991-19.659 8.382-26.633 14.758-26.633 26.899s6.974 18.517 26.633 26.899c12.415 5.293 25.11 19.255 42.598 21.991 14.482 2.266 31.126-6.635 47.745-6.635s33.264 8.901 47.748 6.635c17.487-2.737 30.181-16.698 42.596-21.991 19.659-8.382 26.633-14.758 26.633-26.899-.002-12.141-6.976-18.517-26.635-26.899z" fill="#aad880"/><g fill="#9bd069"><path d="m352.819 26.597c-14.767-6.296-29.867-22.902-50.668-26.157-.27-.042-.541-.081-.813-.117 3.485 2.242 6.888 4.227 10.273 5.671 23.384 9.97 31.679 17.554 31.679 31.995s-8.295 22.025-31.678 31.995c-14.767 6.296-29.866 22.902-50.665 26.157-17.227 2.696-37.025-7.892-56.793-7.892-19.457 0-38.943 10.258-55.977 8.009 11.717 7.538 24.363 17.978 40.395 20.487 17.226 2.696 37.023-7.892 56.79-7.892 19.768 0 39.566 10.588 56.793 7.892 20.8-3.255 35.899-19.861 50.665-26.157 23.384-9.97 31.678-17.554 31.678-31.995 0-14.442-8.295-22.027-31.679-31.996z"/><path d="m208.983 165.75c-9.368-3.994-18.947-14.529-32.143-16.594-.279-.044-.559-.082-.841-.115 8.615 4.678 11.873 9.194 11.873 16.402 0 9.161-5.262 13.972-20.096 20.297-9.368 3.994-18.946 14.528-32.141 16.594-10.928 1.71-23.488-5.006-36.028-5.006-12.219 0-24.457 6.378-35.186 5.121 2.334 1.268 5.061 2.547 8.224 3.895 9.368 3.994 18.947 14.529 32.143 16.594 10.928 1.71 23.487-5.007 36.027-5.007s25.1 6.717 36.028 5.006c13.195-2.065 22.774-12.6 32.141-16.594 14.834-6.325 20.096-11.136 20.096-20.297-.001-9.16-5.263-13.972-20.097-20.296z"/><path d="m464.242 102.618c-11.338-4.834-22.931-17.583-38.901-20.082-.513-.08-1.029-.145-1.548-.196 17.374 7.495 23.563 13.309 23.563 24.239 0 11.087-6.368 16.91-24.321 24.564-11.337 4.833-22.93 17.583-38.899 20.082-13.226 2.07-28.426-6.059-43.603-6.059-14.588 0-29.196 7.51-42.053 6.255.251.108.504.217.759.326 11.338 4.834 22.931 17.583 38.901 20.082 13.225 2.07 28.425-6.059 43.601-6.059 15.177 0 30.377 8.129 43.603 6.059 15.969-2.499 27.561-15.249 38.899-20.082 17.953-7.654 24.321-13.477 24.321-24.564 0-11.088-6.369-16.911-24.322-24.565z"/><path d="m433.993 181.725c-5.159-2.2-10.366-5.896-15.946-9.662-2.259-.163-4.561-.509-6.897-.96 5.891 4.705 8.269 9.828 8.269 16.917 0 12.141-6.973 18.517-26.633 26.899-12.414 5.293-25.109 19.254-42.596 21.991-14.483 2.267-31.128-6.635-47.747-6.635-15.868 0-31.759 8.115-45.769 6.875 11.376 6.091 23.32 17.873 39.232 20.363 14.482 2.266 31.126-6.635 47.745-6.635s33.264 8.901 47.747 6.635c17.487-2.737 30.181-16.698 42.596-21.991 19.659-8.382 26.633-14.758 26.633-26.899-.001-12.14-6.975-18.516-26.634-26.898z"/><path d="m399.733 299.673c-8.051-3.433-16.284-12.487-27.625-14.261-.697-.109-1.402-.178-2.115-.213 4.144 3.146 5.804 6.544 5.804 11.315 0 7.873-4.523 12.008-17.272 17.444-8.051 3.432-16.283 12.486-27.624 14.261-9.392 1.47-20.187-4.303-30.965-4.303-9.977 0-19.967 4.947-28.847 4.516 2.696 2.047 6.442 3.987 11.467 6.13 8.051 3.433 16.284 12.487 27.625 14.261 9.392 1.47 20.185-4.303 30.963-4.303s21.572 5.773 30.965 4.303c11.34-1.775 19.573-10.829 27.624-14.261 12.749-5.436 17.272-9.571 17.272-17.444 0-7.874-4.523-12.009-17.272-17.445z"/></g></g></svg>