<?xml version="1.0" encoding="iso-8859-1"?>
<!-- Generator: Adobe Illustrator 19.0.0, SVG Export Plug-In . SVG Version: 6.00 Build 0)  -->
<svg version="1.1" id="Capa_1" xmlns="http://www.w3.org/2000/svg" xmlns:xlink="http://www.w3.org/1999/xlink" x="0px" y="0px"
	 viewBox="0 0 512 512" style="enable-background:new 0 0 512 512;" xml:space="preserve">
<path style="fill:#B4E66E;" d="M378.924,94.92c-0.471-3.347-3.194-6.07-6.542-6.542c-21.275-2.995-44.417,4.226-61.642,21.451
	s-24.446,40.368-21.451,61.642c0.471,3.347,3.194,6.07,6.542,6.542c21.275,2.995,44.417-4.226,61.642-21.451
	C374.698,139.338,381.919,116.195,378.924,94.92z"/>
<path style="fill:#A0D755;" d="M378.924,94.92c-0.236-1.674-1.035-3.19-2.192-4.349l-85.249,85.249
	c1.158,1.158,2.675,1.957,4.349,2.192c21.275,2.996,44.418-4.226,61.642-21.45C374.697,139.338,381.919,116.195,378.924,94.92z"/>
<path style="fill:#B4E66E;" d="M169.071,0.234c-4.049,0.385-7.221,3.557-7.606,7.606c-1.49,15.683,4.138,32.414,16.742,45.018
	S207.542,71.09,223.225,69.6c4.049-0.385,7.221-3.557,7.606-7.606c1.49-15.683-4.138-32.414-16.742-45.018
	C201.485,4.372,184.754-1.256,169.071,0.234z"/>
<path style="fill:#A0D755;" d="M178.207,52.858c12.604,12.604,29.335,18.232,45.018,16.743c2.025-0.192,3.83-1.081,5.177-2.429
	L163.894,2.663c-1.348,1.347-2.237,3.152-2.429,5.177C159.975,23.523,165.603,40.254,178.207,52.858z"/>
<path style="fill:#B4E66E;" d="M91.97,131.426c-3.296,0.559-5.956,3.219-6.515,6.515c-5.445,32.127,5.079,67.524,31.232,93.676
	s61.55,36.676,93.676,31.232c3.296-0.559,5.956-3.219,6.515-6.515c5.445-32.127-5.079-67.524-31.232-93.676
	S124.097,125.981,91.97,131.426z"/>
<path style="fill:#A0D755;" d="M116.687,231.617c26.152,26.152,61.55,36.676,93.677,31.232c1.648-0.279,3.136-1.084,4.284-2.231
	L87.687,133.657c-1.147,1.147-1.951,2.636-2.231,4.284C80.011,170.067,90.535,205.465,116.687,231.617z"/>
<path style="fill:#9B735A;" d="M411.733,503.873c-12.546-28.691-41.145-48.762-74.462-48.762c-2.135,0-4.244,0.107-6.329,0.293
	c-4.171,0.372-8.232-0.963-11.578-3.48c-17.654-13.282-39.569-21.194-63.363-21.194s-45.709,7.912-63.362,21.194
	c-3.346,2.518-7.407,3.853-11.578,3.48c-2.086-0.186-4.194-0.293-6.329-0.293c-33.318,0-61.917,20.07-74.462,48.762L411.733,503.873
	L411.733,503.873z"/>
<path style="fill:#87BE4B;" d="M326.763,140.54c-3.175-3.175-8.317-3.175-11.492,0l-46,46.016c-1.83,1.833-3.534,3.757-5.143,5.743
	v-62.267c0-23.873-9.302-46.325-26.183-63.214l-36.571-36.571c-3.175-3.175-8.317-3.175-11.492,0s-3.175,8.317,0,11.492
	l36.571,36.571c13.81,13.817,21.421,32.19,21.421,51.722v156.149c-4.173-6.614-9.026-12.856-14.69-18.522l-69.595-69.595
	c-3.175-3.175-8.317-3.175-11.492,0s-3.175,8.317,0,11.492l69.595,69.595c16.881,16.889,26.183,39.341,26.183,63.214v96.492h16.254
	V238.262c0-15.183,5.913-29.468,16.643-40.214l45.992-46.016C329.937,148.857,329.937,143.714,326.763,140.54z"/>
<path style="fill:#8C5F50;" d="M273.546,432.193c-5.705-0.959-11.564-1.463-17.545-1.463c-23.794,0-45.709,7.912-63.363,21.193
	c-3.346,2.518-7.407,3.853-11.578,3.48c-2.086-0.186-4.194-0.293-6.329-0.293c-33.318,0-61.917,20.07-74.462,48.762h105.929
	C217.632,471.575,242.168,445.472,273.546,432.193z"/>
<path style="fill:#AE8B70;" d="M434.795,512H77.207c-4.492,0-8.127-3.635-8.127-8.127s3.635-8.127,8.127-8.127h357.587
	c4.492,0,8.127,3.635,8.127,8.127S439.287,512,434.795,512z"/>
<g>
</g>
<g>
</g>
<g>
</g>
<g>
</g>
<g>
</g>
<g>
</g>
<g>
</g>
<g>
</g>
<g>
</g>
<g>
</g>
<g>
</g>
<g>
</g>
<g>
</g>
<g>
</g>
<g>
</g>
</svg>
